<mxfile host="app.diagrams.net" modified="2022-06-20T15:52:32.968Z" agent="5.0 (Macintosh; Intel Mac OS X 10_15_7) AppleWebKit/537.36 (KHTML, like Gecko) Chrome/102.0.0.0 Safari/537.36" etag="aWQ0PU7NAriA3uNlUxlx" version="20.0.1" type="github">
  <diagram id="nGE7U2n5xQMcAGP4TEWT" name="第 1 页">
    <mxGraphModel dx="1018" dy="794" grid="1" gridSize="10" guides="1" tooltips="1" connect="1" arrows="1" fold="1" page="1" pageScale="1" pageWidth="1169" pageHeight="1654" math="0" shadow="0">
      <root>
        <mxCell id="0" />
        <mxCell id="1" parent="0" />
        <mxCell id="pU96LRBhRAfV7FaCgnF7-2" value="" style="rounded=0;whiteSpace=wrap;html=1;strokeColor=#000000;strokeWidth=3;shadow=1;glass=1;sketch=1;dashed=1;fillColor=none;" vertex="1" parent="1">
          <mxGeometry x="728" y="260" width="250" height="490" as="geometry" />
        </mxCell>
        <mxCell id="pU96LRBhRAfV7FaCgnF7-1" value="" style="shape=image;verticalLabelPosition=bottom;labelBackgroundColor=#ffffff;verticalAlign=top;aspect=fixed;imageAspect=0;image=data:image/svg+xml,PHN2ZyB4bWxuczpjYz0iaHR0cDovL2NyZWF0aXZlY29tbW9ucy5vcmcvbnMjIiB4bWxuczpkYz0iaHR0cDovL3B1cmwub3JnL2RjL2VsZW1lbnRzLzEuMS8iIHhtbG5zOmlua3NjYXBlPSJodHRwOi8vd3d3Lmlua3NjYXBlLm9yZy9uYW1lc3BhY2VzL2lua3NjYXBlIiB4bWxuczpyZGY9Imh0dHA6Ly93d3cudzMub3JnLzE5OTkvMDIvMjItcmRmLXN5bnRheC1ucyMiIHhtbG5zOnNvZGlwb2RpPSJodHRwOi8vc29kaXBvZGkuc291cmNlZm9yZ2UubmV0L0RURC9zb2RpcG9kaS0wLmR0ZCIgeG1sbnM6c3ZnPSJodHRwOi8vd3d3LnczLm9yZy8yMDAwL3N2ZyIgeG1sbnM9Imh0dHA6Ly93d3cudzMub3JnLzIwMDAvc3ZnIiB4bWxuczp4bGluaz0iaHR0cDovL3d3dy53My5vcmcvMTk5OS94bGluayIgdmVyc2lvbj0iMS4xIiBpZD0ic3ZnODA0NzkiIGlua3NjYXBlOnZlcnNpb249IjAuOTIuMyAoMjQwNTU0NiwgMjAxOC0wMy0xMSkiIHNvZGlwb2RpOmRvY25hbWU9ImdpdC5zdmciIHg9IjBweCIgeT0iMHB4IiB2aWV3Qm94PSIwIDAgMzAuMzcgMzAuMzciIHN0eWxlPSJlbmFibGUtYmFja2dyb3VuZDpuZXcgMCAwIDMwLjM3IDMwLjM3OyIgeG1sOnNwYWNlPSJwcmVzZXJ2ZSI+JiN4YTs8c29kaXBvZGk6bmFtZWR2aWV3IGJvcmRlcmNvbG9yPSIjNjY2NjY2IiBib3JkZXJvcGFjaXR5PSIxIiBmaXQtbWFyZ2luLWJvdHRvbT0iMCIgZml0LW1hcmdpbi1sZWZ0PSIwIiBmaXQtbWFyZ2luLXJpZ2h0PSIwIiBmaXQtbWFyZ2luLXRvcD0iMCIgZ3JpZHRvbGVyYW5jZT0iMTAiIGd1aWRldG9sZXJhbmNlPSIxMCIgaWQ9Im5hbWVkdmlldzgwNDgxIiBpbmtzY2FwZTpjdXJyZW50LWxheWVyPSJzdmc4MDQ3OSIgaW5rc2NhcGU6Y3g9IjI0LjU0MDUyIiBpbmtzY2FwZTpjeT0iLTcuOTc4NjcxNyIgaW5rc2NhcGU6cGFnZW9wYWNpdHk9IjAiIGlua3NjYXBlOnBhZ2VzaGFkb3c9IjIiIGlua3NjYXBlOndpbmRvdy1oZWlnaHQ9IjEwMTciIGlua3NjYXBlOndpbmRvdy1tYXhpbWl6ZWQ9IjEiIGlua3NjYXBlOndpbmRvdy13aWR0aD0iMTkyMCIgaW5rc2NhcGU6d2luZG93LXg9Ii04IiBpbmtzY2FwZTp3aW5kb3cteT0iLTgiIGlua3NjYXBlOnpvb209IjYuOTUyMzU1MSIgb2JqZWN0dG9sZXJhbmNlPSIxMCIgcGFnZWNvbG9yPSIjZmZmZmZmIiBzaG93Z3JpZD0iZmFsc2UiPiYjeGE7CTwvc29kaXBvZGk6bmFtZWR2aWV3PiYjeGE7PGcgaWQ9Imc4MDQ3NyIgdHJhbnNmb3JtPSJ0cmFuc2xhdGUoLTIwLjgxNTYsLTAuNzQyMikiPiYjeGE7CTx0aXRsZSBpZD0idGl0bGU4MDQ2NyI+UGFnZS0xPC90aXRsZT4mI3hhOwk8ZyBpZD0iZ3JvdXA0MjQ4LTEiIHRyYW5zZm9ybT0idHJhbnNsYXRlKDIwLjYzMDYsLTM0Ljg0MjgpIj4mI3hhOwkJPHRpdGxlIGlkPSJ0aXRsZTgwNDY5Ij5HaXQ8L3RpdGxlPiYjeGE7CQk8ZyBpZD0ic2hhcGU0MjQ5LTIiPiYjeGE7CQkJPHRpdGxlIGlkPSJ0aXRsZTgwNDcxIj5TaGVldC40MjQ5PC90aXRsZT4mI3hhOwkJCTxwYXRoIGlkPSJwYXRoODA0NzMiIGlua3NjYXBlOmNvbm5lY3Rvci1jdXJ2YXR1cmU9IjAiIHN0eWxlPSJmaWxsOiNGNTREMjc7IiBkPSJNMzAsNDkuNDRsLTEzLjMtMTMuMyAgICAgYy0wLjc0LTAuNzQtMS45Mi0wLjc0LTIuNjYsMGwtMi44NSwyLjg1bDMuNDMsMy40M2MwLjI2LTAuMSwwLjUzLTAuMTYsMC44NC0wLjE2YzEuMjcsMCwyLjMsMS4wMywyLjMsMi4zMiAgICAgYzAsMC4yOS0wLjA1LDAuNTgtMC4xNSwwLjg0bDMuMzYsMy4zNmMwLjI1LTAuMTEsMC41NS0wLjE3LDAuODMtMC4xN2MxLjI4LDAsMi4zMSwxLjA1LDIuMzEsMi4zMmMwLDEuMjktMS4wMywyLjMxLTIuMzEsMi4zMSAgICAgYy0xLjI3LDAtMi4zMS0xLjAyLTIuMzEtMi4zMWMwLTAuMjksMC4wNi0wLjU4LDAuMTYtMC44NGwtMy4xNy0zLjE3djguMjZjMC43NywwLjM5LDEuMjcsMS4xNywxLjI3LDIuMDYgICAgIGMwLDEuMjktMS4wMiwyLjMyLTIuMjksMi4zMmMtMS4yOSwwLTIuMzItMS4wMy0yLjMyLTIuMzJjMC0wLjk4LDAuNjEtMS44MiwxLjQ5LTIuMTV2LTguMzZjLTAuODgtMC4zMy0xLjQ5LTEuMTctMS40OS0yLjE1ICAgICBjMC0wLjMsMC4wNi0wLjU4LDAuMTYtMC44NWwtMy40My0zLjQybC05LjEzLDkuMTNDMCw1MC4xOCwwLDUxLjM2LDAuNzQsNTIuMDlsMTMuMywxMy4zMWMwLjczLDAuNzQsMS45MiwwLjc0LDIuNjYsMEwzMCw1Mi4wOSAgICAgQzMwLjc0LDUxLjM2LDMwLjc0LDUwLjE4LDMwLDQ5LjQ0eiIvPiYjeGE7CQk8L2c+JiN4YTsJPC9nPiYjeGE7PC9nPiYjeGE7PC9zdmc+;" vertex="1" parent="1">
          <mxGeometry x="795" y="360" width="120" height="120" as="geometry" />
        </mxCell>
        <mxCell id="pU96LRBhRAfV7FaCgnF7-3" value="" style="rounded=0;whiteSpace=wrap;html=1;strokeWidth=3;fillColor=none;strokeColor=#9933FF;dashed=1;sketch=1;shadow=1;glass=1;" vertex="1" parent="1">
          <mxGeometry x="60" y="260" width="250" height="490" as="geometry" />
        </mxCell>
        <mxCell id="pU96LRBhRAfV7FaCgnF7-5" value="" style="rounded=0;whiteSpace=wrap;html=1;strokeWidth=3;dashed=1;strokeColor=#BAD80B;shadow=1;glass=1;sketch=1;fillColor=none;" vertex="1" parent="1">
          <mxGeometry x="390" y="260" width="250" height="490" as="geometry" />
        </mxCell>
        <mxCell id="pU96LRBhRAfV7FaCgnF7-7" value="" style="shape=image;verticalLabelPosition=bottom;labelBackgroundColor=#ffffff;verticalAlign=top;aspect=fixed;imageAspect=0;image=data:image/svg+xml,PHN2ZyB4bWxuczpjYz0iaHR0cDovL2NyZWF0aXZlY29tbW9ucy5vcmcvbnMjIiB4bWxuczpkYz0iaHR0cDovL3B1cmwub3JnL2RjL2VsZW1lbnRzLzEuMS8iIHhtbG5zOmlua3NjYXBlPSJodHRwOi8vd3d3Lmlua3NjYXBlLm9yZy9uYW1lc3BhY2VzL2lua3NjYXBlIiB4bWxuczpyZGY9Imh0dHA6Ly93d3cudzMub3JnLzE5OTkvMDIvMjItcmRmLXN5bnRheC1ucyMiIHhtbG5zOnNvZGlwb2RpPSJodHRwOi8vc29kaXBvZGkuc291cmNlZm9yZ2UubmV0L0RURC9zb2RpcG9kaS0wLmR0ZCIgeG1sbnM6c3ZnPSJodHRwOi8vd3d3LnczLm9yZy8yMDAwL3N2ZyIgeG1sbnM9Imh0dHA6Ly93d3cudzMub3JnLzIwMDAvc3ZnIiB4bWxuczp4bGluaz0iaHR0cDovL3d3dy53My5vcmcvMTk5OS94bGluayIgdmVyc2lvbj0iMS4xIiBpZD0ic3ZnMzg0NjYiIGlua3NjYXBlOnZlcnNpb249IjAuOTIuMyAoMjQwNTU0NiwgMjAxOC0wMy0xMSkiIHNvZGlwb2RpOmRvY25hbWU9ImNzcy5zdmciIHg9IjBweCIgeT0iMHB4IiB2aWV3Qm94PSIwIDAgMjYuODUgMzUuMzIiIHN0eWxlPSJlbmFibGUtYmFja2dyb3VuZDpuZXcgMCAwIDI2Ljg1IDM1LjMyOyIgeG1sOnNwYWNlPSJwcmVzZXJ2ZSI+JiN4YTs8c29kaXBvZGk6bmFtZWR2aWV3IGJvcmRlcmNvbG9yPSIjNjY2NjY2IiBib3JkZXJvcGFjaXR5PSIxIiBmaXQtbWFyZ2luLWJvdHRvbT0iMCIgZml0LW1hcmdpbi1sZWZ0PSIwIiBmaXQtbWFyZ2luLXJpZ2h0PSIwIiBmaXQtbWFyZ2luLXRvcD0iMCIgZ3JpZHRvbGVyYW5jZT0iMTAiIGd1aWRldG9sZXJhbmNlPSIxMCIgaWQ9Im5hbWVkdmlldzM4NDY4IiBpbmtzY2FwZTpjdXJyZW50LWxheWVyPSJzdmczODQ2NiIgaW5rc2NhcGU6Y3g9IjE3Ljg5Nzg4NCIgaW5rc2NhcGU6Y3k9IjIzLjU0OTc1NiIgaW5rc2NhcGU6cGFnZW9wYWNpdHk9IjAiIGlua3NjYXBlOnBhZ2VzaGFkb3c9IjIiIGlua3NjYXBlOndpbmRvdy1oZWlnaHQ9IjEwMTciIGlua3NjYXBlOndpbmRvdy1tYXhpbWl6ZWQ9IjEiIGlua3NjYXBlOndpbmRvdy13aWR0aD0iMTkyMCIgaW5rc2NhcGU6d2luZG93LXg9Ii04IiBpbmtzY2FwZTp3aW5kb3cteT0iLTgiIGlua3NjYXBlOnpvb209IjExLjM3MjMzNiIgb2JqZWN0dG9sZXJhbmNlPSIxMCIgcGFnZWNvbG9yPSIjZmZmZmZmIiBzaG93Z3JpZD0iZmFsc2UiPiYjeGE7CTwvc29kaXBvZGk6bmFtZWR2aWV3PiYjeGE7PGcgaWQ9ImczODQ2NCIgdHJhbnNmb3JtPSJ0cmFuc2xhdGUoLTEwLjkyODYsLTEwLjkzMTQpIj4mI3hhOwk8dGl0bGUgaWQ9InRpdGxlMzg0MTAiPlBhZ2UtMTwvdGl0bGU+JiN4YTsJPGcgaWQ9Imdyb3VwNDI3OC0xIiB0cmFuc2Zvcm09InRyYW5zbGF0ZSgxMC45Mjg2LC0xMC45Mjg2KSI+JiN4YTsJCTx0aXRsZSBpZD0idGl0bGUzODQxMiI+Q1NTLjI4ODwvdGl0bGU+JiN4YTsJCTxnIGlkPSJncm91cDQyNzktMiI+JiN4YTsJCQk8dGl0bGUgaWQ9InRpdGxlMzg0MTQiPlNoZWV0LjQyNzk8L3RpdGxlPiYjeGE7CQkJPGcgaWQ9InNoYXBlNDI4MC0zIj4mI3hhOwkJCQk8dGl0bGUgaWQ9InRpdGxlMzg0MTYiPlNoZWV0LjQyODA8L3RpdGxlPiYjeGE7CQkJCTxwYXRoIGlkPSJwYXRoMzg0MTgiIGlua3NjYXBlOmNvbm5lY3Rvci1jdXJ2YXR1cmU9IjAiIHN0eWxlPSJmaWxsOiNFOUU5RTA7IiBkPSJNMTkuMDMsMjEuODZIMC45MWMtMC41LDAtMC45MSwwLjQxLTAuOTEsMS4yMSAgICAgIHYzMy40OGMwLDAuMjIsMC40MSwwLjYzLDAuOTEsMC42M2gyNS4wMmMwLjUxLDAsMC45Mi0wLjQxLDAuOTItMC42M1YzMC4wNGMwLTAuNDQtMC4wNi0wLjU4LTAuMTYtMC42OGwtNy4yNy03LjM0ICAgICAgQzE5LjMyLDIxLjkyLDE5LjE4LDIxLjg2LDE5LjAzLDIxLjg2eiIvPiYjeGE7CQkJPC9nPiYjeGE7CQkJPGcgaWQ9InNoYXBlNDI4MS01IiB0cmFuc2Zvcm09InRyYW5zbGF0ZSgxOS4zNTQ3LC0yNy43NTIzKSI+JiN4YTsJCQkJPHRpdGxlIGlkPSJ0aXRsZTM4NDIxIj5TaGVldC40MjgxPC90aXRsZT4mI3hhOwkJCQk8cGF0aCBpZD0icGF0aDM4NDIzIiBpbmtzY2FwZTpjb25uZWN0b3ItY3VydmF0dXJlPSIwIiBzdHlsZT0iZmlsbDojRDlEN0NBOyIgZD0iTTAsNDkuN3Y3LjQ4aDcuNEwwLDQ5Ljd6Ii8+JiN4YTsJCQk8L2c+JiN4YTsJCQk8ZyBpZD0ic2hhcGU0MjgyLTciPiYjeGE7CQkJCTx0aXRsZSBpZD0idGl0bGUzODQyNiI+U2hlZXQuNDI4MjwvdGl0bGU+JiN4YTsJCQkJPHBhdGggaWQ9InBhdGgzODQyOCIgaW5rc2NhcGU6Y29ubmVjdG9yLWN1cnZhdHVyZT0iMCIgc3R5bGU9ImZpbGw6IzIwNTg2NzsiIGQ9Ik0yNS45Myw1Ny4xOEgwLjkxYy0wLjUsMC0wLjkxLTAuNDEtMC45MS0wLjkyICAgICAgdi05LjhoMjYuODV2OS44QzI2Ljg1LDU2Ljc3LDI2LjQ0LDU3LjE4LDI1LjkzLDU3LjE4eiIvPiYjeGE7CQkJPC9nPiYjeGE7CQkJPGcgaWQ9Imdyb3VwNDI4My05IiB0cmFuc2Zvcm09InRyYW5zbGF0ZSg2LjI5NDA0LC0xLjg0OTMxKSI+JiN4YTsJCQkJPHRpdGxlIGlkPSJ0aXRsZTM4NDMxIj5TaGVldC40MjgzPC90aXRsZT4mI3hhOwkJCQk8ZyBpZD0ic2hhcGU0Mjg0LTEwIj4mI3hhOwkJCQkJPHRpdGxlIGlkPSJ0aXRsZTM4NDMzIj5TaGVldC40Mjg0PC90aXRsZT4mI3hhOwkJCQkJPHBhdGggaWQ9InBhdGgzODQzNSIgaW5rc2NhcGU6Y29ubmVjdG9yLWN1cnZhdHVyZT0iMCIgc3R5bGU9ImZpbGw6I0ZGRkZGRjsiIGQ9Ik00LjM3LDU2LjQ5Yy0wLjIzLDAuMjMtMC41LDAuNC0wLjc5LDAuNTIgICAgICAgYy0wLjMsMC4xMS0wLjYyLDAuMTctMC45NiwwLjE3Yy0wLjM4LDAtMC43Mi0wLjA3LTEuMDQtMC4yMWMtMC4zMS0wLjE0LTAuNTktMC4zNC0wLjgyLTAuNjFjLTAuMjQtMC4yNy0wLjQzLTAuNjEtMC41Ni0xLjAyICAgICAgIFMwLDU0LjQ2LDAsNTMuOTNjMC0wLjU0LDAuMDctMS4wMSwwLjItMS40MWMwLjEzLTAuNDEsMC4zMi0wLjc1LDAuNTYtMS4wMmMwLjIzLTAuMjcsMC41MS0wLjQ3LDAuODMtMC42MXMwLjY2LTAuMjEsMS4wMy0wLjIxICAgICAgIGMwLjM0LDAsMC42NiwwLjA1LDAuOTYsMC4xN2MwLjI5LDAuMTEsMC41NiwwLjI5LDAuNzksMC41MkwzLjY2LDUyYy0wLjE0LTAuMTYtMC4zLTAuMjgtMC40Ny0wLjM2ICAgICAgIGMtMC4xOC0wLjA3LTAuMzYtMC4xMS0wLjU0LTAuMTFjLTAuMjIsMC0wLjQyLDAuMDQtMC42MSwwLjEyYy0wLjE5LDAuMDgtMC4zNiwwLjIyLTAuNTEsMC40MXMtMC4yNywwLjQ0LTAuMzUsMC43NSAgICAgICBjLTAuMDksMC4zLTAuMTMsMC42Ny0wLjE0LDEuMTJjMC4wMSwwLjQzLDAuMDUsMC44LDAuMTMsMS4xYzAuMDksMC4zMSwwLjIsMC41NSwwLjM0LDAuNzVjMC4xNSwwLjE5LDAuMzEsMC4zMywwLjUsMC40MiAgICAgICBjMC4xOCwwLjA5LDAuMzgsMC4xMywwLjU4LDAuMTNjMC4yMSwwLDAuNC0wLjAzLDAuNTgtMC4xMWMwLjE4LTAuMDcsMC4zNC0wLjE5LDAuNDktMC4zNkw0LjM3LDU2LjQ5eiIvPiYjeGE7CQkJCTwvZz4mI3hhOwkJCQk8ZyBpZD0ic2hhcGU0Mjg1LTEyIiB0cmFuc2Zvcm09InRyYW5zbGF0ZSg1Ljc0MzM2LC0wLjAwODgzMDI3KSI+JiN4YTsJCQkJCTx0aXRsZSBpZD0idGl0bGUzODQzOCI+U2hlZXQuNDI4NTwvdGl0bGU+JiN4YTsJCQkJCTxwYXRoIGlkPSJwYXRoMzg0NDAiIGlua3NjYXBlOmNvbm5lY3Rvci1jdXJ2YXR1cmU9IjAiIHN0eWxlPSJmaWxsOiNGRkZGRkY7IiBkPSJNMy42NSw1NS40YzAsMC4yMy0wLjA0LDAuNDUtMC4xNCwwLjY3ICAgICAgIGMtMC4wOSwwLjIyLTAuMjIsMC40MS0wLjM5LDAuNTdzLTAuMzgsMC4yOS0wLjY0LDAuMzljLTAuMjUsMC4xLTAuNTMsMC4xNS0wLjg1LDAuMTVjLTAuMTQsMC0wLjI4LTAuMDEtMC40Mi0wLjAyICAgICAgIGMtMC4xNS0wLjAyLTAuMjktMC4wNC0wLjQ0LTAuMDhDMC42Miw1Ny4wNSwwLjQ4LDU3LDAuMzUsNTYuOTRDMC4yMSw1Ni44OCwwLjEsNTYuODEsMCw1Ni43MmwwLjE4LTAuNzQgICAgICAgYzAuMDgsMC4wNSwwLjE4LDAuMDksMC4zLDAuMTNjMC4xMiwwLjA1LDAuMjUsMC4wOSwwLjM4LDAuMTJjMC4xMywwLjA0LDAuMjYsMC4wNywwLjM5LDAuMDljMC4xNCwwLjAzLDAuMjYsMC4wNCwwLjM3LDAuMDQgICAgICAgYzAuMzUsMCwwLjYxLTAuMDgsMC44LTAuMjVjMC4xOC0wLjE2LDAuMjgtMC40LDAuMjgtMC43M2MwLTAuMTktMC4wNy0wLjM2LTAuMi0wLjVjLTAuMTMtMC4xMy0wLjI5LTAuMjYtMC40OS0wLjM3ICAgICAgIGMtMC4yLTAuMTEtMC40MS0wLjIyLTAuNjQtMC4zNGMtMC4yMi0wLjExLTAuNDQtMC4yNC0wLjY0LTAuMzljLTAuMi0wLjE2LTAuMzYtMC4zNC0wLjQ5LTAuNTRjLTAuMTMtMC4yMS0wLjItMC40Ny0wLjItMC43OCAgICAgICBjMC0wLjI4LDAuMDUtMC41MywwLjE2LTAuNzVjMC4xLTAuMjIsMC4yNC0wLjQsMC40MS0wLjU1YzAuMTctMC4xNiwwLjM4LTAuMjcsMC42MS0wLjM1YzAuMjMtMC4wOCwwLjQ3LTAuMTIsMC43My0wLjEyICAgICAgIHMwLjUyLDAuMDIsMC43OSwwLjA3UzMuMjIsNTAuODksMy4zOSw1MWMtMC4wNCwwLjA3LTAuMDgsMC4xNS0wLjEyLDAuMjRjLTAuMDUsMC4wOS0wLjA5LDAuMTctMC4xMywwLjI1ICAgICAgIGMtMC4wNCwwLjA4LTAuMDcsMC4xNC0wLjEsMC4yYy0wLjAzLDAuMDUtMC4wNSwwLjA4LTAuMDUsMC4wOGMtMC4wNC0wLjAxLTAuMDctMC4wNC0wLjEyLTAuMDdjLTAuMDQtMC4wMy0wLjEtMC4wNS0wLjE4LTAuMDggICAgICAgYy0wLjA4LTAuMDMtMC4xOS0wLjA1LTAuMzItMC4wNmMtMC4xMy0wLjAyLTAuMy0wLjAxLTAuNSwwLjAxYy0wLjEyLDAuMDEtMC4yMiwwLjA0LTAuMzMsMC4wOWMtMC4xLDAuMDYtMC4xOSwwLjEzLTAuMjcsMC4yMSAgICAgICBjLTAuMDgsMC4wOC0wLjE0LDAuMTctMC4xOSwwLjI3Yy0wLjA0LDAuMS0wLjA3LDAuMi0wLjA3LDAuMjljMCwwLjIzLDAuMDcsMC40MSwwLjIsMC41NWMwLjEzLDAuMTUsMC4yOSwwLjI3LDAuNDksMC4zNyAgICAgICBjMC4xOSwwLjExLDAuNCwwLjIxLDAuNjMsMC4zMmMwLjIzLDAuMSwwLjQ0LDAuMjIsMC42NCwwLjM2YzAuMTksMC4xNCwwLjM1LDAuMzMsMC40OSwwLjU0QzMuNTksNTQuNzksMy42NSw1NS4wNiwzLjY1LDU1LjR6Ii8+JiN4YTsJCQkJPC9nPiYjeGE7CQkJCTxnIGlkPSJzaGFwZTQyODYtMTQiIHRyYW5zZm9ybT0idHJhbnNsYXRlKDEwLjM2OTgsLTAuMDA4ODMwMjcpIj4mI3hhOwkJCQkJPHRpdGxlIGlkPSJ0aXRsZTM4NDQzIj5TaGVldC40Mjg2PC90aXRsZT4mI3hhOwkJCQkJPHBhdGggaWQ9InBhdGgzODQ0NSIgaW5rc2NhcGU6Y29ubmVjdG9yLWN1cnZhdHVyZT0iMCIgc3R5bGU9ImZpbGw6I0ZGRkZGRjsiIGQ9Ik0zLjY1LDU1LjRjMCwwLjIzLTAuMDQsMC40NS0wLjE0LDAuNjcgICAgICAgYy0wLjA5LDAuMjItMC4yMiwwLjQxLTAuMzksMC41N3MtMC4zOCwwLjI5LTAuNjQsMC4zOWMtMC4yNSwwLjEtMC41MywwLjE1LTAuODUsMC4xNWMtMC4xNCwwLTAuMjgtMC4wMS0wLjQyLTAuMDIgICAgICAgYy0wLjE1LTAuMDItMC4yOS0wLjA0LTAuNDQtMC4wOEMwLjYyLDU3LjA1LDAuNDgsNTcsMC4zNSw1Ni45NEMwLjIxLDU2Ljg4LDAuMSw1Ni44MSwwLDU2LjcybDAuMTgtMC43NCAgICAgICBjMC4wOCwwLjA1LDAuMTgsMC4wOSwwLjMsMC4xM2MwLjEyLDAuMDUsMC4yNSwwLjA5LDAuMzgsMC4xMmMwLjEzLDAuMDQsMC4yNiwwLjA3LDAuMzksMC4wOWMwLjE0LDAuMDMsMC4yNiwwLjA0LDAuMzcsMC4wNCAgICAgICBjMC4zNSwwLDAuNjEtMC4wOCwwLjgtMC4yNWMwLjE4LTAuMTYsMC4yOC0wLjQsMC4yOC0wLjczYzAtMC4xOS0wLjA3LTAuMzYtMC4yLTAuNWMtMC4xMy0wLjEzLTAuMjktMC4yNi0wLjQ5LTAuMzcgICAgICAgYy0wLjItMC4xMS0wLjQxLTAuMjItMC42NC0wLjM0Yy0wLjIyLTAuMTEtMC40NC0wLjI0LTAuNjQtMC4zOWMtMC4yLTAuMTYtMC4zNi0wLjM0LTAuNDktMC41NGMtMC4xMy0wLjIxLTAuMi0wLjQ3LTAuMi0wLjc4ICAgICAgIGMwLTAuMjgsMC4wNS0wLjUzLDAuMTYtMC43NWMwLjEtMC4yMiwwLjI0LTAuNCwwLjQxLTAuNTVjMC4xNy0wLjE2LDAuMzgtMC4yNywwLjYxLTAuMzVjMC4yMy0wLjA4LDAuNDctMC4xMiwwLjczLTAuMTIgICAgICAgczAuNTIsMC4wMiwwLjc5LDAuMDdTMy4yMiw1MC44OSwzLjM5LDUxYy0wLjA0LDAuMDctMC4wOCwwLjE1LTAuMTIsMC4yNGMtMC4wNSwwLjA5LTAuMDksMC4xNy0wLjEzLDAuMjUgICAgICAgYy0wLjA0LDAuMDgtMC4wNywwLjE0LTAuMSwwLjJjLTAuMDMsMC4wNS0wLjA1LDAuMDgtMC4wNSwwLjA4Yy0wLjA0LTAuMDEtMC4wNy0wLjA0LTAuMTItMC4wN2MtMC4wNC0wLjAzLTAuMS0wLjA1LTAuMTgtMC4wOCAgICAgICBjLTAuMDgtMC4wMy0wLjE5LTAuMDUtMC4zMi0wLjA2Yy0wLjEzLTAuMDItMC4zLTAuMDEtMC41LDAuMDFjLTAuMTIsMC4wMS0wLjIyLDAuMDQtMC4zMywwLjA5Yy0wLjEsMC4wNi0wLjE5LDAuMTMtMC4yNywwLjIxICAgICAgIGMtMC4wOCwwLjA4LTAuMTQsMC4xNy0wLjE5LDAuMjdjLTAuMDQsMC4xLTAuMDcsMC4yLTAuMDcsMC4yOWMwLDAuMjMsMC4wNywwLjQxLDAuMiwwLjU1YzAuMTMsMC4xNSwwLjI5LDAuMjcsMC40OSwwLjM3ICAgICAgIGMwLjE5LDAuMTEsMC40LDAuMjEsMC42MywwLjMyYzAuMjMsMC4xLDAuNDQsMC4yMiwwLjY0LDAuMzZjMC4xOSwwLjE0LDAuMzUsMC4zMywwLjQ5LDAuNTRDMy41OSw1NC43OSwzLjY1LDU1LjA2LDMuNjUsNTUuNHoiLz4mI3hhOwkJCQk8L2c+JiN4YTsJCQk8L2c+JiN4YTsJCQk8ZyBpZD0iZ3JvdXA0Mjg3LTE2IiB0cmFuc2Zvcm09InRyYW5zbGF0ZSg0Ljk5NDc3LC0xNS4xMzc2KSI+JiN4YTsJCQkJPHRpdGxlIGlkPSJ0aXRsZTM4NDQ5Ij5TaGVldC40Mjg3PC90aXRsZT4mI3hhOwkJCQk8ZyBpZD0ic2hhcGU0Mjg4LTE3Ij4mI3hhOwkJCQkJPHRpdGxlIGlkPSJ0aXRsZTM4NDUxIj5TaGVldC40Mjg4PC90aXRsZT4mI3hhOwkJCQkJPHBhdGggaWQ9InBhdGgzODQ1MyIgaW5rc2NhcGU6Y29ubmVjdG9yLWN1cnZhdHVyZT0iMCIgc3R5bGU9ImZpbGw6IzIwNTg2NzsiIGQ9Ik0zLjEyLDQ4Ljk4di0yLjUyYzAtMC4zNSwwLjI4LTAuNjMsMC42My0wLjYzICAgICAgIGMwLjM0LDAsMC42Mi0wLjI5LDAuNjItMC42NGMwLTAuMzQtMC4yOC0wLjYzLTAuNjItMC42M2MtMS4wNCwwLTEuODgsMC44NS0xLjg4LDEuOXYyLjUyYzAsMC42OS0wLjU2LDEuMjYtMS4yNSwxLjI2ICAgICAgIEMwLjI4LDUwLjI0LDAsNTAuNTIsMCw1MC44N2MwLDAuMzUsMC4yOCwwLjYzLDAuNjIsMC42M2MwLjY5LDAsMS4yNSwwLjU3LDEuMjUsMS4yNnYyLjUzYzAsMS4wNCwwLjg0LDEuODksMS44OCwxLjg5ICAgICAgIGMwLjM0LDAsMC42Mi0wLjI4LDAuNjItMC42M2MwLTAuMzUtMC4yOC0wLjYzLTAuNjItMC42M2MtMC4zNSwwLTAuNjMtMC4yOS0wLjYzLTAuNjN2LTIuNTNjMC0wLjc1LTAuMzQtMS40My0wLjg2LTEuODkgICAgICAgQzIuNzgsNTAuNDEsMy4xMiw0OS43NCwzLjEyLDQ4Ljk4eiIvPiYjeGE7CQkJCTwvZz4mI3hhOwkJCQk8ZyBpZD0ic2hhcGU0Mjg5LTE5IiB0cmFuc2Zvcm09InRyYW5zbGF0ZSgxMS44NjI2KSI+JiN4YTsJCQkJCTx0aXRsZSBpZD0idGl0bGUzODQ1NiI+U2hlZXQuNDI4OTwvdGl0bGU+JiN4YTsJCQkJCTxwYXRoIGlkPSJwYXRoMzg0NTgiIGlua3NjYXBlOmNvbm5lY3Rvci1jdXJ2YXR1cmU9IjAiIHN0eWxlPSJmaWxsOiMyMDU4Njc7IiBkPSJNMy43NSw1MC4yNGMtMC42OSwwLTEuMjUtMC41Ny0xLjI1LTEuMjYgICAgICAgdi0yLjUyYzAtMS4wNS0wLjg0LTEuOS0xLjg4LTEuOUMwLjI4LDQ0LjU2LDAsNDQuODUsMCw0NS4xOWMwLDAuMzUsMC4yOCwwLjY0LDAuNjIsMC42NGMwLjM1LDAsMC42MywwLjI4LDAuNjMsMC42M3YyLjUyICAgICAgIGMwLDAuNzYsMC4zNCwxLjQzLDAuODYsMS44OWMtMC41MiwwLjQ2LTAuODYsMS4xNC0wLjg2LDEuODl2Mi41M2MwLDAuMzQtMC4yOCwwLjYzLTAuNjMsMC42M0MwLjI4LDU1LjkyLDAsNTYuMiwwLDU2LjU1ICAgICAgIGMwLDAuMzUsMC4yOCwwLjYzLDAuNjIsMC42M2MxLjA0LDAsMS44OC0wLjg1LDEuODgtMS44OXYtMi41M2MwLTAuNjksMC41Ni0xLjI2LDEuMjUtMS4yNmMwLjM0LDAsMC42Mi0wLjI4LDAuNjItMC42MyAgICAgICBDNC4zNyw1MC41Miw0LjA5LDUwLjI0LDMuNzUsNTAuMjR6Ii8+JiN4YTsJCQkJPC9nPiYjeGE7CQkJPC9nPiYjeGE7CQk8L2c+JiN4YTsJPC9nPiYjeGE7PC9nPiYjeGE7PC9zdmc+;" vertex="1" parent="1">
          <mxGeometry x="94.57" y="320" width="79.43" height="102.96" as="geometry" />
        </mxCell>
        <mxCell id="pU96LRBhRAfV7FaCgnF7-8" value="" style="shape=image;verticalLabelPosition=bottom;labelBackgroundColor=#ffffff;verticalAlign=top;aspect=fixed;imageAspect=0;image=data:image/svg+xml,PHN2ZyB4bWxuczpjYz0iaHR0cDovL2NyZWF0aXZlY29tbW9ucy5vcmcvbnMjIiB4bWxuczpkYz0iaHR0cDovL3B1cmwub3JnL2RjL2VsZW1lbnRzLzEuMS8iIHhtbG5zOmlua3NjYXBlPSJodHRwOi8vd3d3Lmlua3NjYXBlLm9yZy9uYW1lc3BhY2VzL2lua3NjYXBlIiB4bWxuczpyZGY9Imh0dHA6Ly93d3cudzMub3JnLzE5OTkvMDIvMjItcmRmLXN5bnRheC1ucyMiIHhtbG5zOnNvZGlwb2RpPSJodHRwOi8vc29kaXBvZGkuc291cmNlZm9yZ2UubmV0L0RURC9zb2RpcG9kaS0wLmR0ZCIgeG1sbnM6c3ZnPSJodHRwOi8vd3d3LnczLm9yZy8yMDAwL3N2ZyIgeG1sbnM9Imh0dHA6Ly93d3cudzMub3JnLzIwMDAvc3ZnIiB4bWxuczp4bGluaz0iaHR0cDovL3d3dy53My5vcmcvMTk5OS94bGluayIgdmVyc2lvbj0iMS4xIiBpZD0ic3ZnMzkyNDQiIGlua3NjYXBlOnZlcnNpb249IjAuOTIuMyAoMjQwNTU0NiwgMjAxOC0wMy0xMSkiIHNvZGlwb2RpOmRvY25hbWU9ImRhdC5zdmciIHg9IjBweCIgeT0iMHB4IiB2aWV3Qm94PSIwIDAgMjYuODUgMzUuMzIiIHN0eWxlPSJlbmFibGUtYmFja2dyb3VuZDpuZXcgMCAwIDI2Ljg1IDM1LjMyOyIgeG1sOnNwYWNlPSJwcmVzZXJ2ZSI+JiN4YTs8c29kaXBvZGk6bmFtZWR2aWV3IGJvcmRlcmNvbG9yPSIjNjY2NjY2IiBib3JkZXJvcGFjaXR5PSIxIiBmaXQtbWFyZ2luLWJvdHRvbT0iMCIgZml0LW1hcmdpbi1sZWZ0PSIwIiBmaXQtbWFyZ2luLXJpZ2h0PSIwIiBmaXQtbWFyZ2luLXRvcD0iMCIgZ3JpZHRvbGVyYW5jZT0iMTAiIGd1aWRldG9sZXJhbmNlPSIxMCIgaWQ9Im5hbWVkdmlldzM5MjQ2IiBpbmtzY2FwZTpjdXJyZW50LWxheWVyPSJzdmczOTI0NCIgaW5rc2NhcGU6Y3g9IjE3Ljg5Nzg4NCIgaW5rc2NhcGU6Y3k9IjIzLjU0OTc1NiIgaW5rc2NhcGU6cGFnZW9wYWNpdHk9IjAiIGlua3NjYXBlOnBhZ2VzaGFkb3c9IjIiIGlua3NjYXBlOndpbmRvdy1oZWlnaHQ9IjEwMTciIGlua3NjYXBlOndpbmRvdy1tYXhpbWl6ZWQ9IjEiIGlua3NjYXBlOndpbmRvdy13aWR0aD0iMTkyMCIgaW5rc2NhcGU6d2luZG93LXg9Ii04IiBpbmtzY2FwZTp3aW5kb3cteT0iLTgiIGlua3NjYXBlOnpvb209IjExLjM3MjMzNiIgb2JqZWN0dG9sZXJhbmNlPSIxMCIgcGFnZWNvbG9yPSIjZmZmZmZmIiBzaG93Z3JpZD0iZmFsc2UiPiYjeGE7CTwvc29kaXBvZGk6bmFtZWR2aWV3PiYjeGE7PGcgaWQ9ImczOTI0MiIgdHJhbnNmb3JtPSJ0cmFuc2xhdGUoLTEwLjkyODYsLTEwLjkzMTQpIj4mI3hhOwk8dGl0bGUgaWQ9InRpdGxlMzkxODUiPlBhZ2UtMTwvdGl0bGU+JiN4YTsJPGcgaWQ9Imdyb3VwNDQ3Ny0xIiB0cmFuc2Zvcm09InRyYW5zbGF0ZSgxMC45Mjg2LC0xMC45Mjg2KSI+JiN4YTsJCTx0aXRsZSBpZD0idGl0bGUzOTE4NyI+REFUPC90aXRsZT4mI3hhOwkJPGcgaWQ9InNoYXBlNDQ3OC0yIj4mI3hhOwkJCTx0aXRsZSBpZD0idGl0bGUzOTE4OSI+U2hlZXQuNDQ3ODwvdGl0bGU+JiN4YTsJCQk8cGF0aCBpZD0icGF0aDM5MTkxIiBpbmtzY2FwZTpjb25uZWN0b3ItY3VydmF0dXJlPSIwIiBzdHlsZT0iZmlsbDojRTlFOUUwOyIgZD0iTTE5LjAzLDIxLjg2SDAuOTFjLTAuNSwwLTAuOTEsMC40MS0wLjkxLDEuMjEgICAgIHYzMy40OGMwLDAuMjIsMC40MSwwLjYzLDAuOTEsMC42M2gyNS4wMmMwLjUxLDAsMC45Mi0wLjQxLDAuOTItMC42M1YzMC4wNGMwLTAuNDQtMC4wNi0wLjU4LTAuMTYtMC42OGwtNy4yNy03LjM0ICAgICBDMTkuMzIsMjEuOTIsMTkuMTgsMjEuODYsMTkuMDMsMjEuODZ6Ii8+JiN4YTsJCTwvZz4mI3hhOwkJPGcgaWQ9InNoYXBlNDQ3OS00IiB0cmFuc2Zvcm09InRyYW5zbGF0ZSgxOS4zNTQ3LC0yNy43NTIzKSI+JiN4YTsJCQk8dGl0bGUgaWQ9InRpdGxlMzkxOTQiPlNoZWV0LjQ0Nzk8L3RpdGxlPiYjeGE7CQkJPHBhdGggaWQ9InBhdGgzOTE5NiIgaW5rc2NhcGU6Y29ubmVjdG9yLWN1cnZhdHVyZT0iMCIgc3R5bGU9ImZpbGw6I0Q5RDdDQTsiIGQ9Ik0wLDQ5Ljd2Ny40OGg3LjRMMCw0OS43eiIvPiYjeGE7CQk8L2c+JiN4YTsJCTxnIGlkPSJzaGFwZTQ0ODAtNiI+JiN4YTsJCQk8dGl0bGUgaWQ9InRpdGxlMzkxOTkiPlNoZWV0LjQ0ODA8L3RpdGxlPiYjeGE7CQkJPHBhdGggaWQ9InBhdGgzOTIwMSIgaW5rc2NhcGU6Y29ubmVjdG9yLWN1cnZhdHVyZT0iMCIgc3R5bGU9ImZpbGw6IzgwQkNFQjsiIGQ9Ik0yNS45Myw1Ny4xOEgwLjkxYy0wLjUsMC0wLjkxLTAuNDEtMC45MS0wLjkyICAgICB2LTkuOGgyNi44NXY5LjhDMjYuODUsNTYuNzcsMjYuNDQsNTcuMTgsMjUuOTMsNTcuMTh6Ii8+JiN4YTsJCTwvZz4mI3hhOwkJPGcgaWQ9InNoYXBlNDQ4MS04IiB0cmFuc2Zvcm09InRyYW5zbGF0ZSgxNS44NDg5LC0yMS4zOTA5KSI+JiN4YTsJCQk8dGl0bGUgaWQ9InRpdGxlMzkyMDQiPnBhdGg4OTgxLjM3NDc0PC90aXRsZT4mI3hhOwkJCTxwYXRoIGlkPSJwYXRoMzkyMDYiIGlua3NjYXBlOmNvbm5lY3Rvci1jdXJ2YXR1cmU9IjAiIHN0eWxlPSJmaWxsOiNBQUQyRjI7IiBkPSJNMy45Miw1Mi4xNWMtMC4wNiwwLjA3LTAuMTUsMC4wOC0wLjIzLDAuMDUgICAgIGMtMC4wMywwLjAzLTAuMDgtMC4wOS0wLjEtMC4xN2wtMC4xLTAuMzVjLTAuMDUtMC4xMi0wLjE3LTAuMTItMC4yLTAuMDRsLTAuMjcsMC4yNWMtMC4wNiwwLjExLDAuMDYsMCwwLDBMMi42NSw1MS45TDIuNCw1MS42NCAgICAgYy0wLjA4LTAuMS0wLjE3LTAuMDctMC4yLDAuMDFsLTAuMTYsMC4zN2MtMC4wMywwLjA4LTAuMDcsMC4xNS0wLjEyLDAuMjFjLTAuMDctMC4wMy0wLjEzLTAuMDYtMC4yLTAuMDlsLTAuMzQtMC4xMyAgICAgYy0wLjExLTAuMDYtMC4xNywwLTAuMTgsMC4xMWwwLjAyLDAuMzdjMC4wMSwwLjA4LTAuMDEsMC4xNi0wLjA3LDAuMjNjLTAuMDcsMC4wMi0wLjEzLDAuMDItMC4yLDAuMDJMMC42LDUyLjcyICAgICBjLTAuMTEsMC0wLjE3LDAuMDUtMC4xMiwwLjE3bDAuMTYsMC4zNWMwLjAyLDAuMDgsMC4wNCwwLjIzLDAuMDQsMC4yM2MtMC4wNywwLjA0LTAuMTQsMC4wNi0wLjIxLDAuMDhMMC4xMiw1My43ICAgICBDMC4wMyw1My43MywwLDUzLjgxLDAuMDgsNTMuOWwwLjI4LDAuMjRjMC4wNSwwLjA3LDAuMDksMC4xNCwwLjEzLDAuMjJjLTAuMDQsMC4wNy0wLjA5LDAuMTMtMC4xNSwwLjE5TDAuMDcsNTQuOCAgICAgYy0wLjA2LDAuMDUtMC4wNCwwLjE0LDAuMDUsMC4xN2wwLjM0LDAuMTNjMC4wOCwwLjAzLDAuMTksMC4xLDAuMTksMC4xNWMwLDAuMDctMC4wMiwwLjE0LTAuMDQsMC4ybC0wLjE5LDAuMzQgICAgIGMtMC4wMywwLjA4LDAuMDIsMC4xNCwwLjExLDAuMThsMC4zNy0wLjAyYzAuMDktMC4wMSwwLjE3LDAuMDEsMC4yNiwwLjA0YzAuMDQsMC4wNiwwLjA1LDAuMTQsMC4wMiwwLjJMMS4xNiw1Ni42ICAgICBjMCwwLjExLDAuMDgsMC4xNCwwLjE3LDAuMTJsMC4zMi0wLjE5YzAuMDgtMC4wNSwwLjE4LTAuMDUsMC4yNi0wLjAyYzAuMDMtMC4wMiwwLjA1LDAuMDcsMC4xMSwwLjE4bDAuMSwwLjM1ICAgICBjMC4wNSwwLjEyLDAuMTQsMC4wOSwwLjIsMC4wNGwwLjI3LTAuMjVjMC4wNS0wLjA5LDAuMTQtMC4xNSwwLjI0LTAuMTZsMC4xMywwLjE1bDAuMjUsMC4yN2MwLjA4LDAuMDksMC4xNywwLjA2LDAuMi0wLjAyICAgICBsMC4xMy0wLjRjMC4wNC0wLjA3LDAuMDktMC4xNCwwLjE1LTAuMTljMC4wNywwLjAzLDAuMTMsMC4wNiwwLjIsMC4wOWwwLjM0LDAuMTRjMC4xMSwwLjA2LDAuMTcsMCwwLjE4LTAuMTFsLTAuMDUtMC4zNSAgICAgYzAtMC4xLDAuMDItMC4yLDAuMDctMC4yOGwwLjI0LDBsMC4zNCwwLjAxYzAuMTEsMCwwLjE0LTAuMDcsMC4xMi0wLjE2bC0wLjE2LTAuMzVjLTAuMDItMC4wOS0wLjA0LTAuMjMtMC4wNC0wLjIzICAgICBjMC4wNS0wLjA1LDAuMTEtMC4wOSwwLjE4LTAuMTFMNS40OCw1NWMwLjA5LTAuMDIsMC4xMi0wLjExLDAuMDQtMC4ybC0wLjI4LTAuMjRjLTAuMDUtMC4wNi0wLjEtMC4xNC0wLjEzLTAuMjEgICAgIGMtMC4wMy0wLjAzLDAuMDYtMC4xMiwwLjEyLTAuMTdsMC4zMS0wLjI2YzAuMDYtMC4wNSwwLjA0LTAuMTQtMC4wNS0wLjE3bC0wLjM0LTAuMTNjLTAuMDgtMC4wNC0wLjIxLTAuMTMtMC4xOS0wLjE2ICAgICBjLTAuMDMtMC4wMywwLTAuMTEsMC4wNC0wLjJsMC4xOS0wLjMzYzAuMDMtMC4wOC0wLjAyLTAuMTQtMC4xNC0wLjE1bC0wLjM0LTAuMDJjLTAuMDktMC4wMS0wLjE3LTAuMDItMC4yNi0wLjA0ICAgICBjLTAuMDQtMC4wNy0wLjA2LTAuMTUtMC4wNS0wLjIzbDAuMDUtMC4zN2MwLTAuMTEtMC4wOC0wLjE1LTAuMTctMC4xMkwzLjkyLDUyLjE1eiBNMy4yMSw1NC4wN2MwLjEzLDAuMjQsMC4wNSwwLjU0LTAuMTksMC42NyAgICAgYy0wLjIyLDAuMTItMC40OSwwLjA2LTAuNjQtMC4xNGMtMC4xMy0wLjIxLTAuMDctMC40OSwwLjE0LTAuNjJjMC4wMS0wLjAxLDAuMDItMC4wMSwwLjA0LTAuMDIgICAgIEMyLjc3LDUzLjgzLDMuMDUsNTMuODgsMy4yMSw1NC4wN0wzLjIxLDU0LjA3eiIvPiYjeGE7CQkJPHBhdGggaWQ9InBhdGgzOTIwOCIgaW5rc2NhcGU6Y29ubmVjdG9yLWN1cnZhdHVyZT0iMCIgc3R5bGU9ImZpbGw6bm9uZTsiIGQ9Ik0zLjkyLDUyLjE1Yy0wLjA2LDAuMDctMC4xNSwwLjA4LTAuMjMsMC4wNSAgICAgYy0wLjAzLDAuMDMtMC4wOC0wLjA5LTAuMS0wLjE3bC0wLjEtMC4zNWMtMC4wNS0wLjEyLTAuMTctMC4xMi0wLjItMC4wNGwtMC4yNywwLjI1Yy0wLjA2LDAuMTEsMC4wNiwwLDAsMEwyLjY1LDUxLjlMMi40LDUxLjY0ICAgICBjLTAuMDgtMC4xLTAuMTctMC4wNy0wLjIsMC4wMWwtMC4xNiwwLjM3Yy0wLjAzLDAuMDgtMC4wNywwLjE1LTAuMTIsMC4yMWMtMC4wNy0wLjAzLTAuMTMtMC4wNi0wLjItMC4wOWwtMC4zNC0wLjEzICAgICBjLTAuMTEtMC4wNi0wLjE3LDAtMC4xOCwwLjExbDAuMDIsMC4zN2MwLjAxLDAuMDgtMC4wMSwwLjE2LTAuMDcsMC4yM2MtMC4wNywwLjAyLTAuMTMsMC4wMi0wLjIsMC4wMkwwLjYsNTIuNzIgICAgIGMtMC4xMSwwLTAuMTcsMC4wNS0wLjEyLDAuMTdsMC4xNiwwLjM1YzAuMDIsMC4wOCwwLjA0LDAuMjMsMC4wNCwwLjIzYy0wLjA3LDAuMDQtMC4xNCwwLjA2LTAuMjEsMC4wOEwwLjEyLDUzLjcgICAgIEMwLjAzLDUzLjczLDAsNTMuODEsMC4wOCw1My45bDAuMjgsMC4yNGMwLjA1LDAuMDcsMC4wOSwwLjE0LDAuMTMsMC4yMmMtMC4wNCwwLjA3LTAuMDksMC4xMy0wLjE1LDAuMTlMMC4wNyw1NC44ICAgICBjLTAuMDYsMC4wNS0wLjA0LDAuMTQsMC4wNSwwLjE3bDAuMzQsMC4xM2MwLjA4LDAuMDMsMC4xOSwwLjEsMC4xOSwwLjE1YzAsMC4wNy0wLjAyLDAuMTQtMC4wNCwwLjJsLTAuMTksMC4zNCAgICAgYy0wLjAzLDAuMDgsMC4wMiwwLjE0LDAuMTEsMC4xOGwwLjM3LTAuMDJjMC4wOS0wLjAxLDAuMTcsMC4wMSwwLjI2LDAuMDRjMC4wNCwwLjA2LDAuMDUsMC4xNCwwLjAyLDAuMkwxLjE2LDU2LjYgICAgIGMwLDAuMTEsMC4wOCwwLjE0LDAuMTcsMC4xMmwwLjMyLTAuMTljMC4wOC0wLjA1LDAuMTgtMC4wNSwwLjI2LTAuMDJjMC4wMy0wLjAyLDAuMDUsMC4wNywwLjExLDAuMThsMC4xLDAuMzUgICAgIGMwLjA1LDAuMTIsMC4xNCwwLjA5LDAuMiwwLjA0bDAuMjctMC4yNWMwLjA1LTAuMDksMC4xNC0wLjE1LDAuMjQtMC4xNmwwLjEzLDAuMTVsMC4yNSwwLjI3YzAuMDgsMC4wOSwwLjE3LDAuMDYsMC4yLTAuMDIgICAgIGwwLjEzLTAuNGMwLjA0LTAuMDcsMC4wOS0wLjE0LDAuMTUtMC4xOWMwLjA3LDAuMDMsMC4xMywwLjA2LDAuMiwwLjA5bDAuMzQsMC4xNGMwLjExLDAuMDYsMC4xNywwLDAuMTgtMC4xMWwtMC4wNS0wLjM1ICAgICBjMC0wLjEsMC4wMi0wLjIsMC4wNy0wLjI4bDAuMjQsMGwwLjM0LDAuMDFjMC4xMSwwLDAuMTQtMC4wNywwLjEyLTAuMTZsLTAuMTYtMC4zNWMtMC4wMi0wLjA5LTAuMDQtMC4yMy0wLjA0LTAuMjMgICAgIGMwLjA1LTAuMDUsMC4xMS0wLjA5LDAuMTgtMC4xMUw1LjQ4LDU1YzAuMDktMC4wMiwwLjEyLTAuMTEsMC4wNC0wLjJsLTAuMjgtMC4yNGMtMC4wNS0wLjA2LTAuMS0wLjE0LTAuMTMtMC4yMSAgICAgYy0wLjAzLTAuMDMsMC4wNi0wLjEyLDAuMTItMC4xN2wwLjMxLTAuMjZjMC4wNi0wLjA1LDAuMDQtMC4xNC0wLjA1LTAuMTdsLTAuMzQtMC4xM2MtMC4wOC0wLjA0LTAuMjEtMC4xMy0wLjE5LTAuMTYgICAgIGMtMC4wMy0wLjAzLDAtMC4xMSwwLjA0LTAuMmwwLjE5LTAuMzNjMC4wMy0wLjA4LTAuMDItMC4xNC0wLjE0LTAuMTVsLTAuMzQtMC4wMmMtMC4wOS0wLjAxLTAuMTctMC4wMi0wLjI2LTAuMDQgICAgIGMtMC4wNC0wLjA3LTAuMDYtMC4xNS0wLjA1LTAuMjNsMC4wNS0wLjM3YzAtMC4xMS0wLjA4LTAuMTUtMC4xNy0wLjEyTDMuOTIsNTIuMTUgTTMuMjEsNTQuMDdjMC4xMywwLjI0LDAuMDUsMC41NC0wLjE5LDAuNjcgICAgIGMtMC4yMiwwLjEyLTAuNDksMC4wNi0wLjY0LTAuMTRjLTAuMTMtMC4yMS0wLjA3LTAuNDksMC4xNC0wLjYyYzAuMDEtMC4wMSwwLjAyLTAuMDEsMC4wNC0wLjAyICAgICBDMi43Nyw1My44MywzLjA1LDUzLjg4LDMuMjEsNTQuMDciLz4mI3hhOwkJPC9nPiYjeGE7CQk8ZyBpZD0ic2hhcGU0NDgyLTExIiB0cmFuc2Zvcm09InRyYW5zbGF0ZSgzLjAyNjA0LC0xMi44NTA5KSI+JiN4YTsJCQk8dGl0bGUgaWQ9InRpdGxlMzkyMTEiPnBhdGg4OTgzLjM3NDc1PC90aXRsZT4mI3hhOwkJCTxwYXRoIGlkPSJwYXRoMzkyMTMiIGlua3NjYXBlOmNvbm5lY3Rvci1jdXJ2YXR1cmU9IjAiIHN0eWxlPSJmaWxsOiNBQUQyRjI7IiBkPSJNMTEuNjgsNDYuNzNjMC4wOS0wLjEsMC4xLTAuMjUsMC4wMi0wLjM1ICAgICBsLTAuNDgtMC41MWMtMC4xLTAuMDgtMC4yNC0wLjA4LTAuMzUtMC4wMmwtMC44LDAuNTNDOS45MSw0Ni4yNiw5LjcsNDYuMTEsOS41Myw0NmwwLjI1LTAuOTdjMC4wNC0wLjExLTAuMDItMC4yNC0wLjEzLTAuMjkgICAgIGwtMC41OS0wLjI4Yy0wLjEtMC4wNy0wLjIzLTAuMDQtMC4zLDAuMDVjLTAuMDEsMC4wMS0wLjAyLDAuMDItMC4wMiwwLjA0bC0wLjU2LDAuODZjLTAuMi0wLjA5LTAuNDEtMC4xNS0wLjYzLTAuMTdsLTAuMDktMC45OSAgICAgYzAuMDEtMC4xMy0wLjA5LTAuMjUtMC4yMi0wLjI2YzAsMC0wLjAxLDAtMC4wMSwwTDYuNTYsNDRjLTAuMTEtMC4wNC0wLjIyLDAuMDYtMC4yNiwwLjE2bC0wLjIxLDEuMDEgICAgIGMtMC4yMiwwLTAuNDQsMC4wNC0wLjY1LDAuMTFsLTAuNDgtMC45Yy0wLjA4LTAuMDktMC4xOS0wLjEzLTAuMzEtMC4xMkw0LDQ0LjUxYy0wLjExLDAuMDQtMC4xOCwwLjE2LTAuMTUsMC4yN2wwLjIsMC45NyAgICAgYy0wLjE4LDAuMDktMC4zNiwwLjI2LTAuNTQsMC4zNmwtMC43OC0wLjYzYy0wLjA5LTAuMDgtMC4yNC0wLjA3LTAuMzIsMC4wMmwtMC40NywwLjQzYy0wLjEsMC4wNy0wLjEyLDAuMjEtMC4wNSwwLjMxbDAuNTYsMC44MyAgICAgYy0wLjE2LDAuMTctMC4zLDAuMzctMC40MiwwLjU4bC0wLjk3LTAuMzJjLTAuMTMtMC4wMi0wLjI2LDAuMDQtMC4zMiwwLjE2bC0wLjI3LDAuNTljLTAuMDUsMC4xMywwLDAuMjgsMC4xMiwwLjM2bDAuODEsMC41MyAgICAgYy0wLjA4LDAuMjItMC4wOSwwLjQyLTAuMTcsMC42M2wtMC45OSwwLjA5Yy0wLjEyLDAuMDQtMC4yMSwwLjE0LTAuMjEsMC4yN0wwLDUwLjU5YzAsMC4xMywwLjA4LDAuMjQsMC4yLDAuMjlsMS4wMSwwLjE1ICAgICBjMC4wMiwwLjI0LDAuMDUsMC40OCwwLjExLDAuNzFsLTAuOSwwLjQ5Yy0wLjExLDAuMDQtMC4xNywwLjE2LTAuMTQsMC4yN2MwLDAuMDEsMC4wMSwwLjAzLDAuMDIsMC4wNGwwLjIxLDAuNjEgICAgIGMwLjA2LDAuMTIsMC4xOCwwLjE5LDAuMzEsMC4xOWwwLjk1LTAuMjNsMC4zMywwLjUzbC0wLjY0LDAuNzhjLTAuMDUsMC4xLTAuMDQsMC4yMiwwLjAyLDAuMzJsMC40NywwLjUxICAgICBjMC4wOCwwLjA4LDAuMjEsMC4xLDAuMzEsMC4wNWwwLjg2LTAuNTZjMC4xNywwLjEyLDAuMzgsMC4yNywwLjU1LDAuMzhsLTAuMjYsMC45N2MtMC4wNCwwLjExLDAuMDIsMC4yNCwwLjEzLDAuMjlsMC42MiwwLjMxICAgICBjMC4xMiwwLjA0LDAuMjQsMCwwLjMyLTAuMDlsMC41My0wLjgyYzAuMjEsMCwwLjQxLDAuMDgsMC42MywwLjFMNS43LDU2LjljMC4wNCwwLjEyLDAuMTQsMC4yMSwwLjI3LDAuMjFsMC42NiwwLjA3ICAgICBjMC4xMi0wLjA0LDAuMjEtMC4xMiwwLjI2LTAuMjNsMC4xOS0wLjk4YzAuMjQtMC4wMiwwLjQ2LTAuMDksMC43LTAuMTFsMC40NiwwLjg2YzAuMDUsMC4xMiwwLjE5LDAuMTcsMC4zMSwwLjEybDAuNjEtMC4yMiAgICAgYzAuMTMtMC4wNCwwLjIxLTAuMTcsMC4xOS0wLjMxbC0wLjIyLTAuOTRjMC4yLTAuMSwwLjM4LTAuMjIsMC41NS0wLjM2bDAuNzcsMC42NGMwLjA4LDAuMSwwLjIzLDAuMTIsMC4zMywwLjAzICAgICBjMC4wMS0wLjAxLDAuMDEtMC4wMSwwLjAyLTAuMDJsMC40OC0wLjQ0YzAuMS0wLjA4LDAuMTItMC4yMywwLjA0LTAuMzNjLTAuMDEtMC4wMS0wLjAxLTAuMDEtMC4wMi0wLjAybC0wLjU2LTAuODMgICAgIGMwLjE3LTAuMTYsMC4zMS0wLjM2LDAuNDEtMC41OGwwLjk3LDAuMzJjMC4xMSwwLjA0LDAuMjQtMC4wMiwwLjI5LTAuMTNsMC4zMS0wLjYxYzAuMDItMC4xMS0wLjAxLTAuMjMtMC4wOS0wLjMybC0wLjg2LTAuNTcgICAgIGMwLjA4LTAuMTksMC4xMi0wLjM5LDAuMTMtMC41OWwxLjAzLTAuMTNjMC4xMS0wLjAzLDAuMjEtMC4xMywwLjIxLTAuMmwwLjA0LTAuNzFjMC4wMS0wLjEzLTAuMDktMC4yNS0wLjIyLTAuMjYgICAgIGMwLDAtMC4wMSwwLTAuMDEsMGwtMC45OC0wLjE4Yy0wLjAxLTAuMjMtMC4wMy0wLjQ1LTAuMDgtMC42N2wwLjgzLTAuNDljMC4xMy0wLjA0LDAuMjEtMC4xOSwwLjE2LTAuMzIgICAgIGMwLTAuMDEtMC4wMS0wLjAxLTAuMDEtMC4wMmwtMC4yMi0wLjYxYy0wLjA0LTAuMTEtMC4xNi0wLjE3LTAuMjctMC4xNGMtMC4wMSwwLTAuMDMsMC4wMS0wLjA0LDAuMDJsLTAuOTcsMC4xNmwtMC4zMS0wLjUzICAgICBsMC42LTAuNzVMMTEuNjgsNDYuNzN6IE03LjM0LDQ5Ljc5YzAuNDIsMC4zOCwwLjQ0LDEuMDMsMC4wNiwxLjQ0Yy0wLjM4LDAuNDItMS4wMywwLjQ0LTEuNDQsMC4wNiAgICAgYy0wLjA0LTAuMDQtMC4wOS0wLjA5LTAuMTItMC4xM2MtMC40Mi0wLjM4LTAuNDQtMS4wMy0wLjA2LTEuNDRjMC4zOC0wLjQyLDEuMDMtMC40NCwxLjQ0LTAuMDZDNy4yNiw0OS43LDcuMyw0OS43NCw3LjM0LDQ5Ljc5eiAgICAgIi8+JiN4YTsJCQk8cGF0aCBpZD0icGF0aDM5MjE1IiBpbmtzY2FwZTpjb25uZWN0b3ItY3VydmF0dXJlPSIwIiBzdHlsZT0iZmlsbDpub25lOyIgZD0iTTExLjY4LDQ2LjczYzAuMDktMC4xLDAuMS0wLjI1LDAuMDItMC4zNSAgICAgbC0wLjQ4LTAuNTFjLTAuMS0wLjA4LTAuMjQtMC4wOC0wLjM1LTAuMDJsLTAuOCwwLjUzQzkuOTEsNDYuMjYsOS43LDQ2LjExLDkuNTMsNDZsMC4yNS0wLjk3YzAuMDQtMC4xMS0wLjAyLTAuMjQtMC4xMy0wLjI5ICAgICBsLTAuNTktMC4yOGMtMC4xLTAuMDctMC4yMy0wLjA0LTAuMywwLjA1Yy0wLjAxLDAuMDEtMC4wMiwwLjAyLTAuMDIsMC4wNGwtMC41NiwwLjg2Yy0wLjItMC4wOS0wLjQxLTAuMTUtMC42My0wLjE3bC0wLjA5LTAuOTkgICAgIGMwLjAxLTAuMTMtMC4wOS0wLjI1LTAuMjItMC4yNmMwLDAtMC4wMSwwLTAuMDEsMEw2LjU2LDQ0Yy0wLjExLTAuMDQtMC4yMiwwLjA2LTAuMjYsMC4xNmwtMC4yMSwxLjAxICAgICBjLTAuMjIsMC0wLjQ0LDAuMDQtMC42NSwwLjExbC0wLjQ4LTAuOWMtMC4wOC0wLjA5LTAuMTktMC4xMy0wLjMxLTAuMTJMNCw0NC41MWMtMC4xMSwwLjA0LTAuMTgsMC4xNi0wLjE1LDAuMjdsMC4yLDAuOTcgICAgIGMtMC4xOCwwLjA5LTAuMzYsMC4yNi0wLjU0LDAuMzZsLTAuNzgtMC42M2MtMC4wOS0wLjA4LTAuMjQtMC4wNy0wLjMyLDAuMDJsLTAuNDcsMC40M2MtMC4xLDAuMDctMC4xMiwwLjIxLTAuMDUsMC4zMWwwLjU2LDAuODMgICAgIGMtMC4xNiwwLjE3LTAuMywwLjM3LTAuNDIsMC41OGwtMC45Ny0wLjMyYy0wLjEzLTAuMDItMC4yNiwwLjA0LTAuMzIsMC4xNmwtMC4yNywwLjU5Yy0wLjA1LDAuMTMsMCwwLjI4LDAuMTIsMC4zNmwwLjgxLDAuNTMgICAgIGMtMC4wOCwwLjIyLTAuMDksMC40Mi0wLjE3LDAuNjNsLTAuOTksMC4wOWMtMC4xMiwwLjA0LTAuMjEsMC4xNC0wLjIxLDAuMjdMMCw1MC41OWMwLDAuMTMsMC4wOCwwLjI0LDAuMiwwLjI5bDEuMDEsMC4xNSAgICAgYzAuMDIsMC4yNCwwLjA1LDAuNDgsMC4xMSwwLjcxbC0wLjksMC40OWMtMC4xMSwwLjA0LTAuMTcsMC4xNi0wLjE0LDAuMjdjMCwwLjAxLDAuMDEsMC4wMywwLjAyLDAuMDRsMC4yMSwwLjYxICAgICBjMC4wNiwwLjEyLDAuMTgsMC4xOSwwLjMxLDAuMTlsMC45NS0wLjIzbDAuMzMsMC41M2wtMC42NCwwLjc4Yy0wLjA1LDAuMS0wLjA0LDAuMjIsMC4wMiwwLjMybDAuNDcsMC41MSAgICAgYzAuMDgsMC4wOCwwLjIxLDAuMSwwLjMxLDAuMDVsMC44Ni0wLjU2YzAuMTcsMC4xMiwwLjM4LDAuMjcsMC41NSwwLjM4bC0wLjI2LDAuOTdjLTAuMDQsMC4xMSwwLjAyLDAuMjQsMC4xMywwLjI5bDAuNjIsMC4zMSAgICAgYzAuMTIsMC4wNCwwLjI0LDAsMC4zMi0wLjA5bDAuNTMtMC44MmMwLjIxLDAsMC40MSwwLjA4LDAuNjMsMC4xTDUuNyw1Ni45YzAuMDQsMC4xMiwwLjE0LDAuMjEsMC4yNywwLjIxbDAuNjYsMC4wNyAgICAgYzAuMTItMC4wNCwwLjIxLTAuMTIsMC4yNi0wLjIzbDAuMTktMC45OGMwLjI0LTAuMDIsMC40Ni0wLjA5LDAuNy0wLjExbDAuNDYsMC44NmMwLjA1LDAuMTIsMC4xOSwwLjE3LDAuMzEsMC4xMmwwLjYxLTAuMjIgICAgIGMwLjEzLTAuMDQsMC4yMS0wLjE3LDAuMTktMC4zMWwtMC4yMi0wLjk0YzAuMi0wLjEsMC4zOC0wLjIyLDAuNTUtMC4zNmwwLjc3LDAuNjRjMC4wOCwwLjEsMC4yMywwLjEyLDAuMzMsMC4wMyAgICAgYzAuMDEtMC4wMSwwLjAxLTAuMDEsMC4wMi0wLjAybDAuNDgtMC40NGMwLjEtMC4wOCwwLjEyLTAuMjMsMC4wNC0wLjMzYy0wLjAxLTAuMDEtMC4wMS0wLjAxLTAuMDItMC4wMmwtMC41Ni0wLjgzICAgICBjMC4xNy0wLjE2LDAuMzEtMC4zNiwwLjQxLTAuNThsMC45NywwLjMyYzAuMTEsMC4wNCwwLjI0LTAuMDIsMC4yOS0wLjEzbDAuMzEtMC42MWMwLjAyLTAuMTEtMC4wMS0wLjIzLTAuMDktMC4zMmwtMC44Ni0wLjU3ICAgICBjMC4wOC0wLjE5LDAuMTItMC4zOSwwLjEzLTAuNTlsMS4wMy0wLjEzYzAuMTEtMC4wMywwLjIxLTAuMTMsMC4yMS0wLjJsMC4wNC0wLjcxYzAuMDEtMC4xMy0wLjA5LTAuMjUtMC4yMi0wLjI2ICAgICBjMCwwLTAuMDEsMC0wLjAxLDBsLTAuOTgtMC4xOGMtMC4wMS0wLjIzLTAuMDMtMC40NS0wLjA4LTAuNjdsMC44My0wLjQ5YzAuMTMtMC4wNCwwLjIxLTAuMTksMC4xNi0wLjMyICAgICBjMC0wLjAxLTAuMDEtMC4wMS0wLjAxLTAuMDJsLTAuMjItMC42MWMtMC4wNC0wLjExLTAuMTYtMC4xNy0wLjI3LTAuMTRjLTAuMDEsMC0wLjAzLDAuMDEtMC4wNCwwLjAybC0wLjk3LDAuMTZsLTAuMzEtMC41MyAgICAgbDAuNi0wLjc1IE03LjM0LDQ5Ljc5YzAuNDIsMC4zOCwwLjQ0LDEuMDMsMC4wNiwxLjQ0Yy0wLjM4LDAuNDItMS4wMywwLjQ0LTEuNDQsMC4wNmMtMC4wNC0wLjA0LTAuMDktMC4wOS0wLjEyLTAuMTMgICAgIGMtMC40Mi0wLjM4LTAuNDQtMS4wMy0wLjA2LTEuNDRjMC4zOC0wLjQyLDEuMDMtMC40NCwxLjQ0LTAuMDZDNy4yNiw0OS43LDcuMyw0OS43NCw3LjM0LDQ5Ljc5Ii8+JiN4YTsJCTwvZz4mI3hhOwkJPGcgaWQ9InNoYXBlNDQ4My0xNCIgdHJhbnNmb3JtPSJ0cmFuc2xhdGUoMTYuMjQ4MiwtMTMuNTgwOCkiPiYjeGE7CQkJPHRpdGxlIGlkPSJ0aXRsZTM5MjE4Ij5wYXRoODk4NS4zNzQ3NjwvdGl0bGU+JiN4YTsJCQk8cGF0aCBpZD0icGF0aDM5MjIwIiBpbmtzY2FwZTpjb25uZWN0b3ItY3VydmF0dXJlPSIwIiBzdHlsZT0iZmlsbDojODBCQ0VCOyIgZD0iTTcuMzUsNTIuOTZsLTAuODYtMC4xICAgICBjLTAuMDctMC4wMS0wLjEyLTAuMDYtMC4xNC0wLjEyYy0wLjA1LTAuMjItMC4xNC0wLjQzLTAuMjQtMC42M2MtMC4wMy0wLjA2LTAuMDItMC4xNCwwLjAyLTAuMmwwLjU2LTAuNyAgICAgYzAuMDUtMC4wNywwLjA1LTAuMTctMC4wMS0wLjIzbC0wLjQ2LTAuNDdjLTAuMDYtMC4wNi0wLjE2LTAuMDctMC4yMy0wLjAxbC0wLjY4LDAuNTRjLTAuMDYsMC4wNC0wLjE0LDAuMDUtMC4yLDAuMDEgICAgIGMtMC4xOC0wLjExLTAuMzgtMC4xOS0wLjU4LTAuMjVjLTAuMDctMC4wMi0wLjEyLTAuMDgtMC4xMy0wLjE1bC0wLjA5LTAuODNjLTAuMDEtMC4wOS0wLjA4LTAuMTYtMC4xNy0wLjE1bC0wLjY3LDAgICAgIGMtMC4wOSwwLTAuMTYsMC4wNy0wLjE3LDAuMTZsLTAuMSwwLjgxYy0wLjAxLDAuMDctMC4wNiwwLjEyLTAuMTIsMC4xNGMtMC4yMywwLjA2LTAuNDYsMC4xNS0wLjY3LDAuMjcgICAgIGMtMC4wNiwwLjA0LTAuMTQsMC4wMy0wLjItMC4wMWwtMC42MS0wLjVjLTAuMTItMC4xLTAuMjEtMC4wOS0wLjI4LTAuMDNsLTAuNDcsMC40N2MtMC4wNiwwLjA2LTAuMDcsMC4xNi0wLjAxLDAuMjNsMC41NCwwLjY4ICAgICBjMC4wNCwwLjA1LDAuMDUsMC4xMywwLjAyLDAuMTljLTAuMTEsMC4yLTAuMiwwLjQyLTAuMjYsMC42NGMtMC4wMiwwLjA3LTAuMDgsMC4xMy0wLjE1LDAuMTRsLTAuODQsMC4xICAgICBDMC4wNiw1Mi45Ny0wLjAxLDUzLjA0LDAsNTMuMTNsMCwwLjY3YzAsMC4wOSwwLjA3LDAuMTYsMC4xNSwwLjE3bDAuOTEsMC4xYzAuMDcsMC4wMSwwLjEyLDAuMDUsMC4xNCwwLjEyICAgICBjMC4wNSwwLjE3LDAuMTIsMC4zNCwwLjIxLDAuNDljMC4wMywwLjA2LDAuMDMsMC4xNC0wLjAyLDAuMmwtMC41NSwwLjY4Yy0wLjA1LDAuMDctMC4wNSwwLjE3LDAuMDEsMC4yM2wwLjQ3LDAuNDcgICAgIGMwLjA2LDAuMDYsMC4xNiwwLjA3LDAuMjMsMC4wMWwwLjY5LTAuNTVjMC4wNi0wLjA0LDAuMTMtMC4wNSwwLjItMC4wMWMwLjE4LDAuMSwwLjM2LDAuMTgsMC41NSwwLjI0ICAgICBjMC4wNywwLjAyLDAuMTIsMC4wOCwwLjEzLDAuMTVsMC4xLDAuOTNjMC4wMSwwLjA5LDAuMDgsMC4xNSwwLjE3LDAuMTVsMC42NywwYzAuMDksMCwwLjE2LTAuMDcsMC4xNy0wLjE1bDAuMS0wLjkzICAgICBjMC4wMS0wLjA3LDAuMDYtMC4xMywwLjEyLTAuMTRjMC4yMi0wLjA2LDAuNDQtMC4xNCwwLjY0LTAuMjZjMC4wNi0wLjA0LDAuMTQtMC4wMywwLjIsMC4wMWwwLjcsMC41NiAgICAgYzAuMDcsMC4wNSwwLjE3LDAuMDUsMC4yMy0wLjAxbDAuNDctMC40OGMwLjA2LTAuMDYsMC4wNy0wLjE2LDAuMDEtMC4yM2wtMC41Ny0wLjdjLTAuMDQtMC4wNi0wLjA1LTAuMTMtMC4wMi0wLjE5ICAgICBjMC4wOC0wLjE1LDAuMTQtMC4zMSwwLjItMC40N2MwLjAyLTAuMDcsMC4wOC0wLjExLDAuMTQtMC4xMmwwLjkxLTAuMWMwLjA5LTAuMDEsMC4xNS0wLjA5LDAuMTUtMC4xN2wwLTAuNjcgICAgIEM3LjUxLDUzLjA0LDcuNDMsNTIuOTYsNy4zNSw1Mi45Nkw3LjM1LDUyLjk2eiBNMy44NSw1NC42OWMtMC43NSwwLTEuMzYtMC42MS0xLjM2LTEuMzZjMC0wLjc1LDAuNjEtMS4zNiwxLjM2LTEuMzYgICAgIGMwLjc1LDAsMS4zNiwwLjYxLDEuMzYsMS4zNmMwLDAsMCwwLDAsMEM1LjIxLDU0LjA4LDQuNiw1NC42OSwzLjg1LDU0LjY5eiIvPiYjeGE7CQk8L2c+JiN4YTsJCTxnIGlkPSJncm91cDQ0ODQtMTYiIHRyYW5zZm9ybT0idHJhbnNsYXRlKDUuMzI3MzgsLTIuMzI5MzUpIj4mI3hhOwkJCTx0aXRsZSBpZD0idGl0bGUzOTIyMyI+U2hlZXQuNDQ4NDwvdGl0bGU+JiN4YTsJCQk8ZyBpZD0ic2hhcGU0NDg1LTE3Ij4mI3hhOwkJCQk8dGl0bGUgaWQ9InRpdGxlMzkyMjUiPlhNTElEXzgzOV88L3RpdGxlPiYjeGE7CQkJCTxwYXRoIGlkPSJwYXRoMzkyMjciIGlua3NjYXBlOmNvbm5lY3Rvci1jdXJ2YXR1cmU9IjAiIHN0eWxlPSJmaWxsOiNGRkZGRkY7IiBkPSJNMy41Nyw1Ni45NWMwLjM4LTAuMTUsMC43MS0wLjM2LDAuOTgtMC42NCAgICAgIGMwLjI4LTAuMjcsMC40OC0wLjYsMC42My0wLjk5YzAuMTQtMC4zOSwwLjIyLTAuODIsMC4yMi0xLjNjMC0wLjQzLTAuMDctMC44NC0wLjItMS4yMmMtMC4xMy0wLjM4LTAuMzItMC43Mi0wLjU4LTEgICAgICBjLTAuMjYtMC4yOS0wLjU5LTAuNTEtMC45OC0wLjY4Yy0wLjM4LTAuMTYtMC44My0wLjI0LTEuMzUtMC4yNEgwdjYuM2gyLjI5QzIuNzYsNTcuMTgsMy4xOSw1Ny4xLDMuNTcsNTYuOTV6IE0xLjIyLDUxLjk1aDEuMDcgICAgICBjMC4zLDAsMC41NiwwLjA1LDAuNzksMC4xNWMwLjI0LDAuMSwwLjQ0LDAuMjQsMC41OSwwLjQzYzAuMTYsMC4xOCwwLjI5LDAuNCwwLjM3LDAuNjVjMC4wOCwwLjI2LDAuMTIsMC41NCwwLjEyLDAuODQgICAgICBjMCwwLjI5LTAuMDQsMC41Ny0wLjEyLDAuODJjLTAuMDgsMC4yNi0wLjIsMC40OC0wLjM2LDAuNjZjLTAuMTYsMC4xOS0wLjM1LDAuMzQtMC41OSwwLjQ0Yy0wLjIzLDAuMTEtMC41LDAuMTYtMC44LDAuMTZIMS4yMiAgICAgIFY1MS45NXoiLz4mI3hhOwkJCTwvZz4mI3hhOwkJCTxnIGlkPSJzaGFwZTQ0ODYtMTkiIHRyYW5zZm9ybT0idHJhbnNsYXRlKDUuNTIxNDcpIj4mI3hhOwkJCQk8dGl0bGUgaWQ9InRpdGxlMzkyMzAiPlhNTElEXzg0Ml88L3RpdGxlPiYjeGE7CQkJCTxwYXRoIGlkPSJwYXRoMzkyMzIiIGlua3NjYXBlOmNvbm5lY3Rvci1jdXJ2YXR1cmU9IjAiIHN0eWxlPSJmaWxsOiNGRkZGRkY7IiBkPSJNMS44NCw1NS42MWgyLjJsMC41OSwxLjU3aDEuMjZsLTIuNC02LjNIMi40MSAgICAgIEwwLDU3LjE4aDEuMjZMMS44NCw1NS42MXogTTIuOTUsNTIuMjdsMC44NywyLjQ4SDIuMDRMMi45NSw1Mi4yN3oiLz4mI3hhOwkJCTwvZz4mI3hhOwkJCTxnIGlkPSJzaGFwZTQ0ODctMjEiIHRyYW5zZm9ybT0idHJhbnNsYXRlKDEwLjk0NTcpIj4mI3hhOwkJCQk8dGl0bGUgaWQ9InRpdGxlMzkyMzUiPlhNTElEXzg0NV88L3RpdGxlPiYjeGE7CQkJCTxwYXRoIGlkPSJwYXRoMzkyMzciIGlua3NjYXBlOmNvbm5lY3Rvci1jdXJ2YXR1cmU9IjAiIHN0eWxlPSJmaWxsOiNGRkZGRkY7IiBkPSJNMi4wMiw1Ny4xOGgxLjIxdi01LjIzaDIuMDJ2LTEuMDdIMHYxLjA3aDIuMDIgICAgICBWNTcuMTh6Ii8+JiN4YTsJCQk8L2c+JiN4YTsJCTwvZz4mI3hhOwk8L2c+JiN4YTs8L2c+JiN4YTs8L3N2Zz4=;" vertex="1" parent="1">
          <mxGeometry x="210" y="410" width="77.14" height="100" as="geometry" />
        </mxCell>
        <mxCell id="pU96LRBhRAfV7FaCgnF7-23" style="edgeStyle=orthogonalEdgeStyle;rounded=0;orthogonalLoop=1;jettySize=auto;html=1;entryX=0.5;entryY=1;entryDx=0;entryDy=0;fontSize=21;fontColor=#000000;strokeWidth=3;" edge="1" parent="1" source="pU96LRBhRAfV7FaCgnF7-9" target="pU96LRBhRAfV7FaCgnF7-12">
          <mxGeometry relative="1" as="geometry" />
        </mxCell>
        <mxCell id="pU96LRBhRAfV7FaCgnF7-9" value="" style="shape=image;verticalLabelPosition=bottom;labelBackgroundColor=#ffffff;verticalAlign=top;aspect=fixed;imageAspect=0;image=data:image/svg+xml,PHN2ZyB4bWxuczpjYz0iaHR0cDovL2NyZWF0aXZlY29tbW9ucy5vcmcvbnMjIiB4bWxuczpkYz0iaHR0cDovL3B1cmwub3JnL2RjL2VsZW1lbnRzLzEuMS8iIHhtbG5zOmlua3NjYXBlPSJodHRwOi8vd3d3Lmlua3NjYXBlLm9yZy9uYW1lc3BhY2VzL2lua3NjYXBlIiB4bWxuczpyZGY9Imh0dHA6Ly93d3cudzMub3JnLzE5OTkvMDIvMjItcmRmLXN5bnRheC1ucyMiIHhtbG5zOnNvZGlwb2RpPSJodHRwOi8vc29kaXBvZGkuc291cmNlZm9yZ2UubmV0L0RURC9zb2RpcG9kaS0wLmR0ZCIgeG1sbnM6c3ZnPSJodHRwOi8vd3d3LnczLm9yZy8yMDAwL3N2ZyIgeG1sbnM9Imh0dHA6Ly93d3cudzMub3JnLzIwMDAvc3ZnIiB4bWxuczp4bGluaz0iaHR0cDovL3d3dy53My5vcmcvMTk5OS94bGluayIgdmVyc2lvbj0iMS4xIiBpZD0ic3ZnNDkxMzUiIGlua3NjYXBlOnZlcnNpb249IjAuOTIuMyAoMjQwNTU0NiwgMjAxOC0wMy0xMSkiIHNvZGlwb2RpOmRvY25hbWU9Impzb24uc3ZnIiB4PSIwcHgiIHk9IjBweCIgdmlld0JveD0iMCAwIDI2LjcyIDM1LjE1IiBzdHlsZT0iZW5hYmxlLWJhY2tncm91bmQ6bmV3IDAgMCAyNi43MiAzNS4xNTsiIHhtbDpzcGFjZT0icHJlc2VydmUiPiYjeGE7PHNvZGlwb2RpOm5hbWVkdmlldyBib3JkZXJjb2xvcj0iIzY2NjY2NiIgYm9yZGVyb3BhY2l0eT0iMSIgZml0LW1hcmdpbi1ib3R0b209IjAiIGZpdC1tYXJnaW4tbGVmdD0iMCIgZml0LW1hcmdpbi1yaWdodD0iMCIgZml0LW1hcmdpbi10b3A9IjAiIGdyaWR0b2xlcmFuY2U9IjEwIiBndWlkZXRvbGVyYW5jZT0iMTAiIGlkPSJuYW1lZHZpZXc0OTEzNyIgaW5rc2NhcGU6Y3VycmVudC1sYXllcj0ic3ZnNDkxMzUiIGlua3NjYXBlOmN4PSIxNy44MTIxNTYiIGlua3NjYXBlOmN5PSIyMy40MzU4OTYiIGlua3NjYXBlOnBhZ2VvcGFjaXR5PSIwIiBpbmtzY2FwZTpwYWdlc2hhZG93PSIyIiBpbmtzY2FwZTp3aW5kb3ctaGVpZ2h0PSIxMDE3IiBpbmtzY2FwZTp3aW5kb3ctbWF4aW1pemVkPSIxIiBpbmtzY2FwZTp3aW5kb3ctd2lkdGg9IjE5MjAiIGlua3NjYXBlOndpbmRvdy14PSItOCIgaW5rc2NhcGU6d2luZG93LXk9Ii04IiBpbmtzY2FwZTp6b29tPSIxMS40MDYwODkiIG9iamVjdHRvbGVyYW5jZT0iMTAiIHBhZ2Vjb2xvcj0iI2ZmZmZmZiIgc2hvd2dyaWQ9ImZhbHNlIj4mI3hhOwk8L3NvZGlwb2RpOm5hbWVkdmlldz4mI3hhOzxnIGlkPSJnNDkxMzMiIHRyYW5zZm9ybT0idHJhbnNsYXRlKC0xMC45Mjg2LC0xMC45MzE0KSI+JiN4YTsJPHRpdGxlIGlkPSJ0aXRsZTQ5MDYxIj5QYWdlLTE8L3RpdGxlPiYjeGE7CTxnIGlkPSJncm91cDM5ODgtMSIgdHJhbnNmb3JtPSJ0cmFuc2xhdGUoMTAuOTI4NiwtMTAuOTI4NikiPiYjeGE7CQk8dGl0bGUgaWQ9InRpdGxlNDkwNjMiPkpTT04uMjY2PC90aXRsZT4mI3hhOwkJPGcgaWQ9Imdyb3VwMzk4OS0yIj4mI3hhOwkJCTx0aXRsZSBpZD0idGl0bGU0OTA2NSI+SlM8L3RpdGxlPiYjeGE7CQkJPGcgaWQ9Imdyb3VwMzk5MC0zIj4mI3hhOwkJCQk8dGl0bGUgaWQ9InRpdGxlNDkwNjciPlNoZWV0LjM5OTA8L3RpdGxlPiYjeGE7CQkJCTxnIGlkPSJzaGFwZTM5OTEtNCI+JiN4YTsJCQkJCTx0aXRsZSBpZD0idGl0bGU0OTA2OSI+U2hlZXQuMzk5MTwvdGl0bGU+JiN4YTsJCQkJCTxwYXRoIGlkPSJwYXRoNDkwNzEiIGlua3NjYXBlOmNvbm5lY3Rvci1jdXJ2YXR1cmU9IjAiIHN0eWxlPSJmaWxsOiNFOUU5RTA7IiBkPSJNMTguOTQsMjEuODZIMC45MWMtMC41LDAtMC45MSwwLjQxLTAuOTEsMS4yMSAgICAgICB2MzMuMzFjMCwwLjIyLDAuNDEsMC42MywwLjkxLDAuNjNoMjQuOWMwLjUsMCwwLjkxLTAuNDEsMC45MS0wLjYzVjMwYzAtMC40My0wLjA2LTAuNTctMC4xNi0wLjY4bC03LjIzLTcuMyAgICAgICBDMTkuMjMsMjEuOTIsMTkuMDksMjEuODYsMTguOTQsMjEuODZ6Ii8+JiN4YTsJCQkJPC9nPiYjeGE7CQkJCTxnIGlkPSJzaGFwZTM5OTItNiIgdHJhbnNmb3JtPSJ0cmFuc2xhdGUoMTkuMjYyLC0yNy42MTkzKSI+JiN4YTsJCQkJCTx0aXRsZSBpZD0idGl0bGU0OTA3NCI+U2hlZXQuMzk5MjwvdGl0bGU+JiN4YTsJCQkJCTxwYXRoIGlkPSJwYXRoNDkwNzYiIGlua3NjYXBlOmNvbm5lY3Rvci1jdXJ2YXR1cmU9IjAiIHN0eWxlPSJmaWxsOiNEOUQ3Q0E7IiBkPSJNMCw0OS41N3Y3LjQ0aDcuMzZMMCw0OS41N3oiLz4mI3hhOwkJCQk8L2c+JiN4YTsJCQkJPGcgaWQ9InNoYXBlMzk5My04Ij4mI3hhOwkJCQkJPHRpdGxlIGlkPSJ0aXRsZTQ5MDc5Ij5TaGVldC4zOTkzPC90aXRsZT4mI3hhOwkJCQkJPHBhdGggaWQ9InBhdGg0OTA4MSIgaW5rc2NhcGU6Y29ubmVjdG9yLWN1cnZhdHVyZT0iMCIgc3R5bGU9ImZpbGw6I0U5QUM0NzsiIGQ9Ik0yNS44MSw1Ny4wMUgwLjkxQzAuNDEsNTcuMDEsMCw1Ni42LDAsNTYuMDkgICAgICAgdi05Ljc1aDI2LjcydjkuNzVDMjYuNzIsNTYuNiwyNi4zMSw1Ny4wMSwyNS44MSw1Ny4wMXoiLz4mI3hhOwkJCQk8L2c+JiN4YTsJCQkJPGcgaWQ9Imdyb3VwMzk5NC0xMCIgdHJhbnNmb3JtPSJ0cmFuc2xhdGUoNC45NzA4NSwtMTUuMDY1MSkiPiYjeGE7CQkJCQk8dGl0bGUgaWQ9InRpdGxlNDkwODQiPlNoZWV0LjM5OTQ8L3RpdGxlPiYjeGE7CQkJCQk8ZyBpZD0ic2hhcGUzOTk1LTExIj4mI3hhOwkJCQkJCTx0aXRsZSBpZD0idGl0bGU0OTA4NiI+U2hlZXQuMzk5NTwvdGl0bGU+JiN4YTsJCQkJCQk8cGF0aCBpZD0icGF0aDQ5MDg4IiBpbmtzY2FwZTpjb25uZWN0b3ItY3VydmF0dXJlPSIwIiBzdHlsZT0iZmlsbDojRTlBQzQ3OyIgZD0iTTMuMTEsNDguODV2LTIuNTEgICAgICAgIGMwLTAuMzUsMC4yOC0wLjYzLDAuNjItMC42M3MwLjYyLTAuMjgsMC42Mi0wLjYzYzAtMC4zNC0wLjI4LTAuNjMtMC42Mi0wLjYzYy0xLjAzLDAtMS44NywwLjg1LTEuODcsMS44OXYyLjUxICAgICAgICBjMCwwLjY5LTAuNTUsMS4yNS0xLjI0LDEuMjVDMC4yOCw1MC4xLDAsNTAuMzksMCw1MC43M2MwLDAuMzUsMC4yOCwwLjYzLDAuNjIsMC42M2MwLjY5LDAsMS4yNCwwLjU2LDEuMjQsMS4yNnYyLjUxICAgICAgICBjMCwxLjAzLDAuODQsMS44OCwxLjg3LDEuODhjMC4zNCwwLDAuNjItMC4yOCwwLjYyLTAuNjNjMC0wLjM1LTAuMjgtMC42My0wLjYyLTAuNjNzLTAuNjItMC4yOC0wLjYyLTAuNjJ2LTIuNTEgICAgICAgIGMwLTAuNzYtMC4zNC0xLjQzLTAuODYtMS44OUMyLjc3LDUwLjI3LDMuMTEsNDkuNiwzLjExLDQ4Ljg1eiIvPiYjeGE7CQkJCQk8L2c+JiN4YTsJCQkJCTxnIGlkPSJzaGFwZTM5OTYtMTMiIHRyYW5zZm9ybT0idHJhbnNsYXRlKDcuMTQ1NTksLTcuNTMyNTQpIj4mI3hhOwkJCQkJCTx0aXRsZSBpZD0idGl0bGU0OTA5MSI+U2hlZXQuMzk5NjwvdGl0bGU+JiN4YTsJCQkJCQk8ZWxsaXBzZSBpZD0iZWxsaXBzZTQ5MDkzIiBzdHlsZT0iZmlsbDojRTlBQzQ3OyIgY3g9IjAuOTMiIGN5PSI1Ni4wNyIgcng9IjAuOTMiIHJ5PSIwLjk0Ii8+JiN4YTsJCQkJCTwvZz4mI3hhOwkJCQkJPGcgaWQ9InNoYXBlMzk5Ny0xNSIgdHJhbnNmb3JtPSJ0cmFuc2xhdGUoMTEuODA1OCkiPiYjeGE7CQkJCQkJPHRpdGxlIGlkPSJ0aXRsZTQ5MDk2Ij5TaGVldC4zOTk3PC90aXRsZT4mI3hhOwkJCQkJCTxwYXRoIGlkPSJwYXRoNDkwOTgiIGlua3NjYXBlOmNvbm5lY3Rvci1jdXJ2YXR1cmU9IjAiIHN0eWxlPSJmaWxsOiNFOUFDNDc7IiBkPSJNMy43Myw1MC4xYy0wLjY5LDAtMS4yNC0wLjU2LTEuMjQtMS4yNSAgICAgICAgdi0yLjUxYzAtMS4wNC0wLjg0LTEuODktMS44Ny0xLjg5QzAuMjgsNDQuNDUsMCw0NC43NCwwLDQ1LjA4YzAsMC4zNSwwLjI4LDAuNjMsMC42MiwwLjYzczAuNjIsMC4yOCwwLjYyLDAuNjN2Mi41MSAgICAgICAgYzAsMC43NSwwLjM0LDEuNDIsMC44NiwxLjg4Yy0wLjUyLDAuNDYtMC44NiwxLjEzLTAuODYsMS44OXYyLjUxYzAsMC4zNC0wLjI4LDAuNjItMC42MiwwLjYyUzAsNTYuMDMsMCw1Ni4zOCAgICAgICAgYzAsMC4zNSwwLjI4LDAuNjMsMC42MiwwLjYzYzEuMDMsMCwxLjg3LTAuODUsMS44Ny0xLjg4di0yLjUxYzAtMC43LDAuNTUtMS4yNiwxLjI0LTEuMjZjMC4zNCwwLDAuNjItMC4yOCwwLjYyLTAuNjMgICAgICAgIEM0LjM1LDUwLjM5LDQuMDcsNTAuMSwzLjczLDUwLjF6Ii8+JiN4YTsJCQkJCTwvZz4mI3hhOwkJCQkJPGcgaWQ9InNoYXBlMzk5OC0xNyIgdHJhbnNmb3JtPSJ0cmFuc2xhdGUoNy40NTYyNywtMS44ODMxNCkiPiYjeGE7CQkJCQkJPHRpdGxlIGlkPSJ0aXRsZTQ5MTAxIj5TaGVldC4zOTk4PC90aXRsZT4mI3hhOwkJCQkJCTxwYXRoIGlkPSJwYXRoNDkxMDMiIGlua3NjYXBlOmNvbm5lY3Rvci1jdXJ2YXR1cmU9IjAiIHN0eWxlPSJmaWxsOiNFOUFDNDc7IiBkPSJNMC42Miw1My44N0MwLjI4LDUzLjg3LDAsNTQuMTUsMCw1NC41djEuODggICAgICAgIGMwLDAuMzUsMC4yOCwwLjYzLDAuNjIsMC42M3MwLjYyLTAuMjgsMC42Mi0wLjYzVjU0LjVDMS4yNCw1NC4xNSwwLjk2LDUzLjg3LDAuNjIsNTMuODd6Ii8+JiN4YTsJCQkJCTwvZz4mI3hhOwkJCQk8L2c+JiN4YTsJCQk8L2c+JiN4YTsJCTwvZz4mI3hhOwkJPGcgaWQ9Imdyb3VwMzk5OS0xOSIgdHJhbnNmb3JtPSJ0cmFuc2xhdGUoMy44MTMzNCwtMi40NTc4MSkiPiYjeGE7CQkJPHRpdGxlIGlkPSJ0aXRsZTQ5MTA5Ij5KU09OLjM2NjY0PC90aXRsZT4mI3hhOwkJCTxnIGlkPSJzaGFwZTQwMDAtMjAiIHRyYW5zZm9ybT0idHJhbnNsYXRlKDAsLTUuMzA5NzJlLTUpIj4mI3hhOwkJCQk8dGl0bGUgaWQ9InRpdGxlNDkxMTEiPlNoZWV0LjQwMDA8L3RpdGxlPiYjeGE7CQkJCTxwYXRoIGlkPSJwYXRoNDkxMTMiIGlua3NjYXBlOmNvbm5lY3Rvci1jdXJ2YXR1cmU9IjAiIHN0eWxlPSJmaWxsOiNGRkZGRkY7IiBkPSJNMy40OCw1MS4xN3Y0LjQzYzAsMC4yNi0wLjA1LDAuNDktMC4xNSwwLjY3ICAgICAgYy0wLjA5LDAuMTgtMC4yMywwLjMzLTAuMzksMC40NGMtMC4xNiwwLjExLTAuMzUsMC4xOS0wLjU3LDAuMjNjLTAuMjEsMC4wNS0wLjQzLDAuMDctMC42NiwwLjA3Yy0wLjExLDAtMC4yNC0wLjAxLTAuMzktMC4wNCAgICAgIGMtMC4xNi0wLjAyLTAuMzEtMC4wNS0wLjQ4LTAuMWMtMC4xNi0wLjA1LTAuMzEtMC4xMS0wLjQ2LTAuMTdDMC4yMyw1Ni42NCwwLjEsNTYuNTcsMCw1Ni40OWwwLjM5LTAuNjIgICAgICBjMC4wNSwwLjAzLDAuMTMsMC4wNywwLjIyLDAuMTFjMC4xLDAuMDQsMC4yLDAuMDcsMC4zMiwwLjExYzAuMTEsMC4wMywwLjIzLDAuMDYsMC4zNSwwLjA5YzAuMTIsMC4wMiwwLjI0LDAuMDMsMC4zNSwwLjAzICAgICAgYzAuMjcsMCwwLjQ5LTAuMDUsMC42NS0wLjE1YzAuMTYtMC4xMSwwLjI1LTAuMjksMC4yNi0wLjU0di00LjM1TDMuNDgsNTEuMTd6Ii8+JiN4YTsJCQk8L2c+JiN4YTsJCQk8ZyBpZD0ic2hhcGU0MDAxLTIyIiB0cmFuc2Zvcm09InRyYW5zbGF0ZSg0Ljc4NDA1LC0wLjAwNzg1ODM4KSI+JiN4YTsJCQkJPHRpdGxlIGlkPSJ0aXRsZTQ5MTE2Ij5TaGVldC40MDAxPC90aXRsZT4mI3hhOwkJCQk8cGF0aCBpZD0icGF0aDQ5MTE4IiBpbmtzY2FwZTpjb25uZWN0b3ItY3VydmF0dXJlPSIwIiBzdHlsZT0iZmlsbDojRkZGRkZGOyIgZD0iTTMuMyw1NS40MmMwLDAuMjEtMC4wNCwwLjQtMC4xMiwwLjYgICAgICBjLTAuMDksMC4xOS0wLjIxLDAuMzYtMC4zNiwwLjUxYy0wLjE2LDAuMTQtMC4zNSwwLjI2LTAuNTcsMC4zNWMtMC4yMywwLjA5LTAuNDksMC4xMy0wLjc4LDAuMTNjLTAuMTIsMC0wLjI1LTAuMDEtMC4zOC0wLjAyICAgICAgYy0wLjEzLTAuMDEtMC4yNi0wLjA0LTAuNC0wLjA3Yy0wLjEzLTAuMDMtMC4yNi0wLjA3LTAuMzgtMC4xMkMwLjE5LDU2Ljc0LDAuMDksNTYuNjgsMCw1Ni42bDAuMTYtMC42NiAgICAgIGMwLjA3LDAuMDQsMC4xNywwLjA4LDAuMjgsMC4xMmMwLjExLDAuMDMsMC4yMiwwLjA3LDAuMzQsMC4xYzAuMTIsMC4wNCwwLjI0LDAuMDYsMC4zNSwwLjA4YzAuMTIsMC4wMywwLjIzLDAuMDQsMC4zNCwwLjA0ICAgICAgYzAuMzEsMCwwLjU1LTAuMDgsMC43Mi0wLjIyYzAuMTYtMC4xNSwwLjI1LTAuMzcsMC4yNS0wLjY2YzAtMC4xNy0wLjA2LTAuMzItMC4xOC0wLjQ0Yy0wLjEyLTAuMTMtMC4yNy0wLjI0LTAuNDQtMC4zNCAgICAgIGMtMC4xOC0wLjEtMC4zNy0wLjItMC41OC0wLjNjLTAuMi0wLjEtMC40LTAuMjItMC41OC0wLjM2Yy0wLjE4LTAuMTMtMC4zMy0wLjI5LTAuNDQtMC40OGMtMC4xMi0wLjE4LTAuMTgtMC40MS0wLjE4LTAuNjkgICAgICBjMC0wLjI1LDAuMDQtMC40OCwwLjE0LTAuNjdjMC4wOS0wLjIsMC4yMS0wLjM2LDAuMzctMC41czAuMzQtMC4yNCwwLjU1LTAuMzFjMC4yMS0wLjA4LDAuNDMtMC4xMSwwLjY2LTAuMTEgICAgICBjMC4yNCwwLDAuNDgsMC4wMiwwLjcyLDAuMDZjMC4yNCwwLjA1LDAuNDMsMC4xMiwwLjU4LDAuMjJDMy4wMyw1MS41NCwzLDUxLjYyLDIuOTYsNTEuN2MtMC4wNSwwLjA4LTAuMDgsMC4xNS0wLjEyLDAuMjIgICAgICBjLTAuMDQsMC4wNy0wLjA3LDAuMTMtMC4wOSwwLjE3Yy0wLjAzLDAuMDUtMC4wNCwwLjA4LTAuMDUsMC4wOGMtMC4wMy0wLjAxLTAuMDYtMC4wMy0wLjEtMC4wNmMtMC4wNC0wLjAzLTAuMS0wLjA1LTAuMTctMC4wOCAgICAgIGMtMC4wNy0wLjAyLTAuMTctMC4wNC0wLjI5LTAuMDVjLTAuMTEtMC4wMS0wLjI3LTAuMDEtMC40NSwwLjAxYy0wLjEsMC4wMS0wLjIsMC4wNC0wLjI5LDAuMDhjLTAuMSwwLjA1LTAuMTgsMC4xMS0wLjI1LDAuMTkgICAgICBjLTAuMDcsMC4wNy0wLjEzLDAuMTUtMC4xNywwLjI0Yy0wLjA0LDAuMDktMC4wNiwwLjE4LTAuMDYsMC4yNmMwLDAuMiwwLjA2LDAuMzcsMC4xNywwLjVjMC4xMiwwLjEyLDAuMjcsMC4yMywwLjQ0LDAuMzMgICAgICBjMC4xOCwwLjA5LDAuMzcsMC4xOSwwLjU4LDAuMjhjMC4yLDAuMDgsMC4zOSwwLjE5LDAuNTcsMC4zMmMwLjE4LDAuMTMsMC4zMywwLjI5LDAuNDQsMC40OUMzLjI0LDU0Ljg3LDMuMyw1NS4xMiwzLjMsNTUuNDJ6Ii8+JiN4YTsJCQk8L2c+JiN4YTsJCQk8ZyBpZD0ic2hhcGU0MDAyLTI0IiB0cmFuc2Zvcm09InRyYW5zbGF0ZSg4LjkzNjUyKSI+JiN4YTsJCQkJPHRpdGxlIGlkPSJ0aXRsZTQ5MTIxIj5TaGVldC40MDAyPC90aXRsZT4mI3hhOwkJCQk8cGF0aCBpZD0icGF0aDQ5MTIzIiBpbmtzY2FwZTpjb25uZWN0b3ItY3VydmF0dXJlPSIwIiBzdHlsZT0iZmlsbDojRkZGRkZGOyIgZD0iTTQuNzQsNTQuMWMwLDAuNDgtMC4wNiwwLjktMC4xOCwxLjI3ICAgICAgYy0wLjEyLDAuMzYtMC4yOSwwLjY2LTAuNTEsMC45MWMtMC4yMSwwLjI0LTAuNDYsMC40Mi0wLjc0LDAuNTRjLTAuMjksMC4xMy0wLjYsMC4xOS0wLjk0LDAuMTlzLTAuNjUtMC4wNi0wLjk0LTAuMTkgICAgICBjLTAuMjgtMC4xMi0wLjUzLTAuMy0wLjc1LTAuNTRjLTAuMjEtMC4yNS0wLjM4LTAuNTUtMC41LTAuOTFDMC4wNiw1NSwwLDU0LjU4LDAsNTQuMWMwLTAuNDgsMC4wNi0wLjksMC4xOC0xLjI2ICAgICAgczAuMjktMC42NywwLjUtMC45MWMwLjIyLTAuMjQsMC40Ny0wLjQyLDAuNzUtMC41NWMwLjI5LTAuMTMsMC42LTAuMTksMC45NC0wLjE5czAuNjUsMC4wNiwwLjk0LDAuMTkgICAgICBjMC4yOCwwLjEzLDAuNTMsMC4zMSwwLjc0LDAuNTVjMC4yMiwwLjI0LDAuMzksMC41NSwwLjUxLDAuOTFDNC42OCw1My4yLDQuNzQsNTMuNjIsNC43NCw1NC4xeiBNMi4zNSw1Ni4yNSAgICAgIGMwLjE5LDAsMC4zNy0wLjAzLDAuNTQtMC4xMWMwLjE3LTAuMDcsMC4zMy0wLjIsMC40Ni0wLjM2YzAuMTQtMC4xNywwLjI1LTAuNCwwLjMyLTAuNjdjMC4wOC0wLjI4LDAuMTItMC42MSwwLjEzLTEuMDEgICAgICBjLTAuMDEtMC4zOS0wLjA1LTAuNzEtMC4xMi0wLjk4Yy0wLjA4LTAuMjctMC4xOC0wLjUtMC4zMS0wLjY3Yy0wLjEzLTAuMTgtMC4yOC0wLjMtMC40NS0wLjM4Yy0wLjE3LTAuMDgtMC4zNC0wLjExLTAuNTMtMC4xMSAgICAgIGMtMC4xOSwwLTAuMzcsMC4wMy0wLjU0LDAuMWMtMC4xOCwwLjA4LTAuMzMsMC4yLTAuNDcsMC4zN2MtMC4xMywwLjE3LTAuMjQsMC4zOS0wLjMyLDAuNjdjLTAuMDcsMC4yNy0wLjExLDAuNi0wLjEyLDEgICAgICBjMC4wMSwwLjM5LDAuMDUsMC43MiwwLjEyLDAuOTljMC4wOCwwLjI3LDAuMTgsMC40OSwwLjMxLDAuNjdjMC4xMywwLjE3LDAuMjgsMC4yOSwwLjQ1LDAuMzdDMS45OCw1Ni4yMSwyLjE2LDU2LjI1LDIuMzUsNTYuMjUgICAgICB6Ii8+JiN4YTsJCQk8L2c+JiN4YTsJCQk8ZyBpZD0ic2hhcGU0MDAzLTI2IiB0cmFuc2Zvcm09InRyYW5zbGF0ZSgxNC45Nzg3LC0wLjAzODM4OTIpIj4mI3hhOwkJCQk8dGl0bGUgaWQ9InRpdGxlNDkxMjYiPlNoZWV0LjQwMDM8L3RpdGxlPiYjeGE7CQkJCTxwYXRoIGlkPSJwYXRoNDkxMjgiIGlua3NjYXBlOmNvbm5lY3Rvci1jdXJ2YXR1cmU9IjAiIHN0eWxlPSJmaWxsOiNGRkZGRkY7IiBkPSJNNC4xMSw1MS4zMnY1LjY5SDMuMTdsLTIuMjMtMy45MnYzLjkySDB2LTUuNjkgICAgICBoMC45NGwyLjIzLDMuOTJ2LTMuOTJMNC4xMSw1MS4zMnoiLz4mI3hhOwkJCTwvZz4mI3hhOwkJPC9nPiYjeGE7CTwvZz4mI3hhOzwvZz4mI3hhOzwvc3ZnPg==;shadow=1;glass=1;dashed=1;sketch=1;strokeColor=#9933FF;strokeWidth=3;fillColor=none;" vertex="1" parent="1">
          <mxGeometry x="94.57" y="490" width="75.43" height="97.78" as="geometry" />
        </mxCell>
        <mxCell id="pU96LRBhRAfV7FaCgnF7-11" value="WorkSpace" style="text;strokeColor=none;fillColor=none;html=1;fontSize=24;fontStyle=1;verticalAlign=middle;align=center;shadow=1;glass=1;dashed=1;sketch=1;" vertex="1" parent="1">
          <mxGeometry x="135" y="680" width="100" height="40" as="geometry" />
        </mxCell>
        <mxCell id="pU96LRBhRAfV7FaCgnF7-22" style="edgeStyle=orthogonalEdgeStyle;rounded=0;orthogonalLoop=1;jettySize=auto;html=1;fontSize=21;fontColor=#000000;strokeWidth=3;" edge="1" parent="1" source="pU96LRBhRAfV7FaCgnF7-12" target="pU96LRBhRAfV7FaCgnF7-1">
          <mxGeometry relative="1" as="geometry">
            <Array as="points">
              <mxPoint x="760" y="470" />
              <mxPoint x="760" y="470" />
            </Array>
          </mxGeometry>
        </mxCell>
        <mxCell id="pU96LRBhRAfV7FaCgnF7-12" value="Index" style="text;strokeColor=none;fillColor=none;html=1;fontSize=24;fontStyle=1;verticalAlign=middle;align=center;shadow=1;glass=1;dashed=1;sketch=1;" vertex="1" parent="1">
          <mxGeometry x="437.5" y="430" width="155" height="80" as="geometry" />
        </mxCell>
        <mxCell id="pU96LRBhRAfV7FaCgnF7-19" value="Repository" style="text;strokeColor=none;fillColor=none;html=1;fontSize=24;fontStyle=1;verticalAlign=middle;align=center;shadow=1;glass=1;dashed=1;sketch=1;fontColor=#000000;" vertex="1" parent="1">
          <mxGeometry x="805" y="540" width="100" height="40" as="geometry" />
        </mxCell>
        <mxCell id="pU96LRBhRAfV7FaCgnF7-24" value="add" style="text;strokeColor=none;fillColor=none;html=1;fontSize=24;fontStyle=1;verticalAlign=middle;align=center;shadow=1;glass=1;dashed=1;sketch=1;fontColor=#000000;" vertex="1" parent="1">
          <mxGeometry x="300" y="560" width="100" height="40" as="geometry" />
        </mxCell>
        <mxCell id="pU96LRBhRAfV7FaCgnF7-27" value="Push" style="text;strokeColor=none;fillColor=none;html=1;fontSize=24;fontStyle=1;verticalAlign=middle;align=center;shadow=1;glass=1;dashed=1;sketch=1;fontColor=#000000;" vertex="1" parent="1">
          <mxGeometry x="633" y="422.96" width="100" height="40" as="geometry" />
        </mxCell>
        <mxCell id="pU96LRBhRAfV7FaCgnF7-28" value="commit" style="text;strokeColor=none;fillColor=none;html=1;fontSize=24;fontStyle=1;verticalAlign=middle;align=center;shadow=1;glass=1;dashed=1;sketch=1;fontColor=#000000;" vertex="1" parent="1">
          <mxGeometry x="465" y="587.78" width="100" height="40" as="geometry" />
        </mxCell>
      </root>
    </mxGraphModel>
  </diagram>
</mxfile>
